<svg width="52" height="15" viewBox="0 0 52 15" fill="none" xmlns="http://www.w3.org/2000/svg">
<path d="M8.81091 9.89085H11.4146L4.9647 3.01813H2.36096L8.81091 9.89085Z" fill="#7476ED"/>
<path d="M6.1073 3.01813L12.6634 9.56358V3.01813H10.8892V5.08465L8.8193 3.01813L6.1073 3.01813Z" fill="#E56F8C"/>
<path d="M1.11218 3.3454V9.89085H2.79745V7.82974L4.76357 9.89085H7.35608L1.11218 3.3454Z" fill="#64C2DB"/>
<path d="M16.6896 8.90623H18.283V9.89084H15.4733V4.65448H16.6896V8.90623Z" fill="#3A3B7B"/>
<path d="M20.2982 9.89084C19.9157 9.89084 19.5705 9.80437 19.2626 9.63139C18.9594 9.45845 18.7191 9.21138 18.5418 8.8902C18.3693 8.569 18.283 8.19346 18.283 7.76354C18.283 7.33862 18.3716 6.96551 18.5489 6.64434C18.7261 6.31819 18.9687 6.06866 19.2766 5.89571C19.5845 5.72277 19.9297 5.63629 20.3122 5.63629C20.6948 5.63629 21.04 5.72277 21.3479 5.89571C21.6557 6.06866 21.8983 6.31819 22.0756 6.64434C22.2529 6.96551 22.3415 7.33862 22.3415 7.76354C22.3415 8.18851 22.2506 8.56405 22.0686 8.8902C21.8913 9.21138 21.6464 9.45845 21.3339 9.63139C21.026 9.80437 20.6807 9.89084 20.2982 9.89084ZM20.2982 8.79384C20.5268 8.79384 20.7204 8.70489 20.879 8.527C21.0423 8.34911 21.1239 8.09465 21.1239 7.76354C21.1239 7.43248 21.0446 7.17801 20.886 7.00012C20.7321 6.82223 20.5408 6.73329 20.3122 6.73329C20.079 6.73329 19.8854 6.82223 19.7314 7.00012C19.5775 7.17306 19.5005 7.42756 19.5005 7.76354C19.5005 8.09465 19.5752 8.34911 19.7244 8.527C19.8784 8.70489 20.0697 8.79384 20.2982 8.79384Z" fill="#3A3B7B"/>
<path d="M24.0365 5.63629C24.3075 5.63629 24.5441 5.69544 24.7462 5.81374C24.953 5.93204 25.1114 6.08732 25.2217 6.27955V5.69544H26.4V9.81379C26.4 10.1933 26.3288 10.5359 26.1864 10.8415C26.0486 11.152 25.8349 11.3985 25.5455 11.5809C25.2607 11.7633 24.9047 11.8545 24.4775 11.8545C23.9079 11.8545 23.4462 11.709 23.0925 11.4182C22.7388 11.1323 22.5367 10.7429 22.4861 10.25H23.6506C23.6874 10.4077 23.7747 10.531 23.9125 10.6197C24.0503 10.7133 24.2202 10.7602 24.4224 10.7602C24.6659 10.7602 24.8588 10.6838 25.0012 10.531C25.1482 10.3831 25.2217 10.144 25.2217 9.81379V9.22967C25.1068 9.42189 24.9484 9.57963 24.7462 9.70288C24.5441 9.82116 24.3075 9.88033 24.0365 9.88033C23.7196 9.88033 23.4324 9.79408 23.1752 9.62153C22.9179 9.44408 22.7135 9.19518 22.562 8.87477C22.4149 8.54945 22.3414 8.17484 22.3414 7.75092C22.3414 7.32701 22.4149 6.95486 22.562 6.63445C22.7135 6.31407 22.9179 6.06759 23.1752 5.89507C23.4324 5.72255 23.7196 5.63629 24.0365 5.63629ZM25.2217 7.75829C25.2217 7.44285 25.139 7.19392 24.9736 7.01153C24.8129 6.82914 24.6153 6.73795 24.3811 6.73795C24.1468 6.73795 23.9469 6.82914 23.7816 7.01153C23.6208 7.18898 23.5404 7.43545 23.5404 7.75092C23.5404 8.0664 23.6208 8.31776 23.7816 8.50509C23.9469 8.68748 24.1468 8.77863 24.3811 8.77863C24.6153 8.77863 24.8129 8.68748 24.9736 8.50509C25.139 8.3227 25.2217 8.07377 25.2217 7.75829Z" fill="#3A3B7B"/>
<path d="M28.8847 9.89084C28.5316 9.89084 28.2129 9.80437 27.9287 9.63139C27.6488 9.45845 27.427 9.21138 27.2634 8.8902C27.1041 8.569 27.0244 8.19346 27.0244 7.76354C27.0244 7.33862 27.1062 6.96551 27.2699 6.64434C27.4335 6.31819 27.6574 6.06866 27.9416 5.89571C28.2258 5.72277 28.5445 5.63629 28.8976 5.63629C29.2507 5.63629 29.5693 5.72277 29.8535 5.89571C30.1377 6.06866 30.3617 6.31819 30.5253 6.64434C30.6889 6.96551 30.7708 7.33862 30.7708 7.76354C30.7708 8.18851 30.6868 8.56405 30.5188 8.8902C30.3552 9.21138 30.1291 9.45845 29.8406 9.63139C29.5564 9.80437 29.2378 9.89084 28.8847 9.89084ZM28.8847 8.79384C29.0957 8.79384 29.2744 8.70489 29.4208 8.527C29.5715 8.34911 29.6469 8.09465 29.6469 7.76354C29.6469 7.43248 29.5737 7.17801 29.4272 7.00012C29.2851 6.82223 29.1086 6.73329 28.8976 6.73329C28.6823 6.73329 28.5036 6.82223 28.3615 7.00012C28.2194 7.17306 28.1483 7.42756 28.1483 7.76354C28.1483 8.09465 28.2172 8.34911 28.355 8.527C28.4971 8.70489 28.6737 8.79384 28.8847 8.79384Z" fill="#3A3B7B"/>
<path d="M31.8672 5.36052C31.6365 5.36052 31.4469 5.29677 31.2982 5.1693C31.1547 5.03692 31.0829 4.87512 31.0829 4.6839C31.0829 4.48779 31.1547 4.32599 31.2982 4.19851C31.4469 4.06613 31.6365 3.99994 31.8672 3.99994C32.0928 3.99994 32.2773 4.06613 32.4209 4.19851C32.5695 4.32599 32.6439 4.48779 32.6439 4.6839C32.6439 4.87512 32.5695 5.03692 32.4209 5.1693C32.2773 5.29677 32.0928 5.36052 31.8672 5.36052ZM32.5208 5.78707V9.89085H31.2059V5.78707H32.5208Z" fill="#3A3B7B"/>
<path d="M34.3559 6.28651C34.4621 6.0922 34.6083 5.93524 34.7948 5.81566C34.9813 5.69608 35.1998 5.63629 35.45 5.63629C35.7427 5.63629 36.0077 5.72348 36.2449 5.89787C36.4825 6.07226 36.669 6.3214 36.8048 6.64525C36.9448 6.96913 37.0147 7.3453 37.0147 7.7738C37.0147 8.2023 36.9448 8.58096 36.8048 8.9098C36.669 9.23368 36.4825 9.48527 36.2449 9.66464C36.0077 9.83905 35.7427 9.92624 35.45 9.92624C35.2041 9.92624 34.9856 9.86643 34.7948 9.74687C34.6083 9.62728 34.4621 9.47283 34.3559 9.28347V11.8545H33.2683V5.69608H34.3559V6.28651ZM35.9079 7.7738C35.9079 7.45491 35.8316 7.20578 35.679 7.02641C35.5306 6.84205 35.346 6.74987 35.1256 6.74987C34.9092 6.74987 34.7249 6.84205 34.5722 7.02641C34.4239 7.21077 34.3497 7.46239 34.3497 7.78125C34.3497 8.10014 34.4239 8.35176 34.5722 8.53612C34.7249 8.72048 34.9092 8.81263 35.1256 8.81263C35.342 8.81263 35.5263 8.72048 35.679 8.53612C35.8316 8.34677 35.9079 8.09269 35.9079 7.7738Z" fill="#3A3B7B"/>
<path d="M39.1542 9.89084C38.8081 9.89084 38.5002 9.82908 38.2301 9.70552C37.9597 9.582 37.7464 9.41398 37.5902 9.20151C37.4337 8.9841 37.3459 8.74194 37.327 8.4751H38.5287C38.5428 8.61842 38.6068 8.73455 38.7207 8.8235C38.8342 8.91244 38.9743 8.95691 39.1401 8.95691C39.2918 8.95691 39.4077 8.92725 39.4886 8.86797C39.5739 8.80373 39.6166 8.72218 39.6166 8.62337C39.6166 8.50476 39.5571 8.41829 39.4387 8.36392C39.32 8.30464 39.128 8.2404 38.8628 8.17122C38.5783 8.10204 38.3412 8.03038 38.1517 7.95628C37.9621 7.8772 37.7987 7.75616 37.6611 7.59308C37.5238 7.42509 37.455 7.20025 37.455 6.91857C37.455 6.68139 37.5166 6.46645 37.6398 6.27372C37.7677 6.07607 37.9528 5.92042 38.1943 5.80677C38.441 5.69312 38.7324 5.63629 39.0689 5.63629C39.5667 5.63629 39.9579 5.76477 40.242 6.02172C40.5314 6.27866 40.6972 6.61963 40.7398 7.0446H39.6166C39.5973 6.90128 39.5357 6.78762 39.4315 6.70363C39.3321 6.61963 39.1993 6.57763 39.0334 6.57763C38.8914 6.57763 38.7823 6.60726 38.7063 6.66658C38.6306 6.72091 38.5927 6.79752 38.5927 6.89633C38.5927 7.01494 38.6519 7.10388 38.7703 7.16317C38.8934 7.22249 39.0833 7.28177 39.3393 7.34106C39.6331 7.42014 39.8725 7.49918 40.0573 7.57827C40.242 7.65236 40.4034 7.77592 40.5406 7.94886C40.6831 8.11689 40.7564 8.34416 40.7612 8.63076C40.7612 8.87292 40.6948 9.09033 40.562 9.28303C40.434 9.47082 40.2468 9.61905 40.0005 9.72776C39.7587 9.83647 39.4766 9.89084 39.1542 9.89084Z" fill="#3A3B7B"/>
<path d="M44.8197 5.96356V9.84906H43.6674V9.31987C43.5507 9.49164 43.3913 9.63089 43.1891 9.73767C42.9915 9.83979 42.7714 9.89083 42.5289 9.89083C42.2413 9.89083 41.9873 9.82587 41.7672 9.69589C41.5471 9.56125 41.3766 9.36859 41.2553 9.11791C41.134 8.86723 41.0734 8.57249 41.0734 8.2336V5.96356H42.2188V8.07342C42.2188 8.3334 42.284 8.53532 42.4141 8.67923C42.5445 8.82316 42.7196 8.8951 42.9397 8.8951C43.1643 8.8951 43.3417 8.82316 43.4721 8.67923C43.6026 8.53532 43.6674 8.3334 43.6674 8.07342V5.96356H44.8197Z" fill="#3A3B7B"/>
<path d="M50.4149 5.96356C50.899 5.96356 51.2832 6.10979 51.567 6.40223C51.8558 6.69469 52.0001 7.1009 52.0001 7.62082V9.89083H50.8129V7.78096C50.8129 7.53028 50.7457 7.33766 50.6105 7.20302C50.4801 7.06377 50.2987 6.99412 50.0659 6.99412C49.8332 6.99412 49.6494 7.06377 49.5142 7.20302C49.3842 7.33766 49.319 7.53028 49.319 7.78096V9.89083H48.1318V7.78096C48.1318 7.53028 48.0646 7.33766 47.9294 7.20302C47.799 7.06377 47.6176 6.99412 47.3849 6.99412C47.1521 6.99412 46.9683 7.06377 46.8332 7.20302C46.7031 7.33766 46.6379 7.53028 46.6379 7.78096V9.89083H45.444V6.00534H46.6379V6.49277C46.7588 6.3303 46.9169 6.20264 47.1126 6.10979C47.3082 6.01231 47.5291 5.96356 47.7757 5.96356C48.069 5.96356 48.3298 6.02623 48.5578 6.15157C48.7906 6.27691 48.972 6.45564 49.1024 6.68775C49.2376 6.4742 49.4213 6.30012 49.6541 6.1655C49.8869 6.03087 50.1406 5.96356 50.4149 5.96356Z" fill="#3A3B7B"/>
</svg>
