<svg width="82" height="23" viewBox="0 0 82 23" fill="none" xmlns="http://www.w3.org/2000/svg">
<g clip-path="url(#clip0_10_55302)">
<path d="M0.710449 16.2316L0.710451 6.3454L5.68595 9.09158V13.5129L9.66639 15.7373L13.6468 13.5129V9.09158L18.6223 6.3454V16.2316L9.66639 21.1747L0.710449 16.2316Z" fill="#192657"/>
<path fill-rule="evenodd" clip-rule="evenodd" d="M3.19821 7.71857L0.710449 6.34546L9.66639 1.40234L18.6223 6.34546L16.1346 7.71857V14.9959L9.66639 18.7033L3.19821 14.9959L3.19821 7.71857ZM15.8651 7.86733L13.6468 9.09165V9.06418L9.66639 6.83976L5.68595 9.06418V9.09165L3.46771 7.86733V14.8438L9.66639 18.3967L15.8651 14.8438V7.86733Z" fill="url(#paint0_linear_10_55302)"/>
<path d="M23.3907 15.4503V7.1459H24.967V14.0267H28.7882V15.4503H23.3907Z" fill="#192657"/>
<path d="M32.1914 15.6164C31.6023 15.6164 31.0729 15.4978 30.6032 15.2605C30.1335 15.0232 29.7634 14.6792 29.4927 14.2284C29.222 13.7776 29.0867 13.2358 29.0867 12.6031V12.4133C29.0867 11.7806 29.222 11.2388 29.4927 10.788C29.7634 10.3372 30.1335 9.99315 30.6032 9.75589C31.0729 9.51857 31.6023 9.39996 32.1914 9.39996C32.7805 9.39996 33.3099 9.51857 33.7796 9.75589C34.2493 9.99315 34.6195 10.3372 34.8901 10.788C35.1608 11.2388 35.2961 11.7806 35.2961 12.4133V12.6031C35.2961 13.2358 35.1608 13.7776 34.8901 14.2284C34.6195 14.6792 34.2493 15.0232 33.7796 15.2605C33.3099 15.4978 32.7805 15.6164 32.1914 15.6164ZM32.1914 14.2877C32.6531 14.2877 33.0353 14.1414 33.3378 13.8487C33.6403 13.5482 33.7915 13.1211 33.7915 12.5675V12.4489C33.7915 11.8953 33.6403 11.4721 33.3378 11.1795C33.0432 10.879 32.6611 10.7287 32.1914 10.7287C31.7297 10.7287 31.3475 10.879 31.0451 11.1795C30.7425 11.4721 30.5913 11.8953 30.5913 12.4489V12.5675C30.5913 13.1211 30.7425 13.5482 31.0451 13.8487C31.3475 14.1414 31.7297 14.2877 32.1914 14.2877Z" fill="#192657"/>
<path d="M35.861 12.5319V12.3421C35.861 11.7252 35.9843 11.1993 36.2311 10.7643C36.4779 10.3213 36.8043 9.98521 37.2103 9.75589C37.6243 9.51857 38.0741 9.39996 38.5596 9.39996C39.101 9.39996 39.511 9.49489 39.7896 9.68469C40.0683 9.87449 40.2713 10.0722 40.3986 10.2779H40.6136V9.56603H42.0943V16.4943C42.0943 16.8977 41.9748 17.218 41.736 17.4553C41.4972 17.7005 41.1788 17.8231 40.7807 17.8231H36.8162V16.5181H40.2553C40.4782 16.5181 40.5897 16.3994 40.5897 16.1621V14.6317H40.3747C40.2951 14.7583 40.1837 14.8888 40.0404 15.0232C39.8971 15.1498 39.706 15.2566 39.4672 15.3436C39.2284 15.4306 38.9258 15.4741 38.5596 15.4741C38.0741 15.4741 37.6243 15.3594 37.2103 15.13C36.8043 14.8927 36.4779 14.5566 36.2311 14.1216C35.9843 13.6787 35.861 13.1488 35.861 12.5319ZM38.9896 14.1691C39.4513 14.1691 39.8374 14.0228 40.1479 13.7301C40.4583 13.4375 40.6136 13.0262 40.6136 12.4964V12.3777C40.6136 11.8399 40.4583 11.4286 40.1479 11.1439C39.8453 10.8513 39.4593 10.7049 38.9896 10.7049C38.5278 10.7049 38.1417 10.8513 37.8313 11.1439C37.5208 11.4286 37.3655 11.8399 37.3655 12.3777V12.4964C37.3655 13.0262 37.5208 13.4375 37.8313 13.7301C38.1417 14.0228 38.5278 14.1691 38.9896 14.1691Z" fill="#192657"/>
<path d="M46.0432 15.6164C45.4541 15.6164 44.9247 15.4978 44.455 15.2605C43.9853 15.0232 43.6151 14.6792 43.3445 14.2284C43.0738 13.7776 42.9385 13.2358 42.9385 12.6031V12.4133C42.9385 11.7806 43.0738 11.2388 43.3445 10.788C43.6151 10.3372 43.9853 9.99315 44.455 9.75589C44.9247 9.51857 45.4541 9.39996 46.0432 9.39996C46.6323 9.39996 47.1617 9.51857 47.6314 9.75589C48.101 9.99315 48.4712 10.3372 48.7419 10.788C49.0126 11.2388 49.1479 11.7806 49.1479 12.4133V12.6031C49.1479 13.2358 49.0126 13.7776 48.7419 14.2284C48.4712 14.6792 48.101 15.0232 47.6314 15.2605C47.1617 15.4978 46.6323 15.6164 46.0432 15.6164ZM46.0432 14.2877C46.5049 14.2877 46.887 14.1414 47.1895 13.8487C47.4921 13.5482 47.6433 13.1211 47.6433 12.5675V12.4489C47.6433 11.8953 47.4921 11.4721 47.1895 11.1795C46.895 10.879 46.5129 10.7287 46.0432 10.7287C45.5814 10.7287 45.1993 10.879 44.8968 11.1795C44.5943 11.4721 44.4431 11.8953 44.4431 12.4489V12.5675C44.4431 13.1211 44.5943 13.5482 44.8968 13.8487C45.1993 14.1414 45.5814 14.2877 46.0432 14.2877Z" fill="#192657"/>
<path d="M49.9994 15.4504V9.56603H51.5039V15.4504H49.9994ZM50.7516 8.87797C50.481 8.87797 50.2501 8.79099 50.059 8.61697C49.8759 8.44296 49.7844 8.21359 49.7844 7.92891C49.7844 7.64418 49.8759 7.41481 50.059 7.24079C50.2501 7.06683 50.481 6.9798 50.7516 6.9798C51.0303 6.9798 51.2611 7.06683 51.4442 7.24079C51.6273 7.41481 51.7189 7.64418 51.7189 7.92891C51.7189 8.21359 51.6273 8.44296 51.4442 8.61697C51.2611 8.79099 51.0303 8.87797 50.7516 8.87797Z" fill="#192657"/>
<path d="M52.634 17.8231V9.56603H54.1148V10.2779H54.3299C54.4649 10.0485 54.6757 9.84682 54.9628 9.6728C55.2493 9.49089 55.6593 9.39996 56.1927 9.39996C56.6704 9.39996 57.1121 9.51857 57.5178 9.75589C57.9241 9.98521 58.2504 10.3253 58.4972 10.7761C58.744 11.2269 58.8674 11.7727 58.8674 12.4133V12.6031C58.8674 13.2437 58.744 13.7894 58.4972 14.2402C58.2504 14.6911 57.9241 15.0351 57.5178 15.2724C57.1121 15.5018 56.6704 15.6164 56.1927 15.6164C55.8341 15.6164 55.5317 15.5729 55.2848 15.4859C55.046 15.4068 54.8511 15.304 54.7001 15.1775C54.5566 15.043 54.4411 14.9086 54.3537 14.7741H54.1387V17.8231H52.634ZM55.7387 14.3114C56.2085 14.3114 56.5947 14.1651 56.8971 13.8725C57.2075 13.572 57.3627 13.137 57.3627 12.5675V12.4489C57.3627 11.8794 57.2075 11.4484 56.8971 11.1557C56.5867 10.8552 56.2006 10.7049 55.7387 10.7049C55.2769 10.7049 54.8908 10.8552 54.5804 11.1557C54.27 11.4484 54.1148 11.8794 54.1148 12.4489V12.5675C54.1148 13.137 54.27 13.572 54.5804 13.8725C54.8908 14.1651 55.2769 14.3114 55.7387 14.3114Z" fill="#192657"/>
<path d="M62.1713 15.6164C61.399 15.6164 60.7661 15.4504 60.2725 15.1182C59.7794 14.786 59.4806 14.3114 59.3768 13.6945L60.7624 13.3386C60.818 13.6154 60.9096 13.833 61.0368 13.9911C61.1724 14.1493 61.3355 14.264 61.5267 14.3352C61.7253 14.3984 61.9403 14.4301 62.1713 14.4301C62.5214 14.4301 62.7804 14.3707 62.9477 14.2521C63.1146 14.1256 63.1983 13.9714 63.1983 13.7894C63.1983 13.6075 63.1188 13.4691 62.9594 13.3742C62.8005 13.2714 62.5457 13.1884 62.1951 13.1251L61.8609 13.0658C61.4467 12.9867 61.0685 12.8799 60.7264 12.7455C60.3842 12.6031 60.1093 12.4093 59.9022 12.1642C59.6957 11.919 59.5919 11.6026 59.5919 11.215C59.5919 10.6298 59.8069 10.183 60.237 9.87449C60.6665 9.55814 61.2322 9.39996 61.9324 9.39996C62.5934 9.39996 63.1427 9.5463 63.5801 9.83892C64.0182 10.1315 64.3047 10.5151 64.4403 10.9897L63.0431 11.4167C62.9795 11.1162 62.8482 10.9026 62.649 10.7761C62.4578 10.6496 62.2189 10.5863 61.9324 10.5863C61.6459 10.5863 61.4271 10.6377 61.2756 10.7405C61.1247 10.8354 61.0489 10.9699 61.0489 11.1439C61.0489 11.3337 61.1284 11.476 61.2878 11.571C61.4467 11.658 61.6618 11.7252 61.9324 11.7727L62.2666 11.832C62.7126 11.9111 63.1146 12.0178 63.4732 12.1523C63.8391 12.2788 64.1257 12.4647 64.3328 12.7099C64.5478 12.9472 64.6553 13.2714 64.6553 13.6827C64.6553 14.2996 64.4281 14.7781 63.9742 15.1182C63.5288 15.4504 62.9276 15.6164 62.1713 15.6164Z" fill="#192657"/>
<path d="M67.6929 15.5452C67.2316 15.5452 66.8254 15.4424 66.4753 15.2368C66.1331 15.0232 65.8662 14.7306 65.675 14.3589C65.4843 13.9872 65.3884 13.5601 65.3884 13.0777V9.56604H66.8932V12.959C66.8932 13.4019 67.0007 13.7341 67.2157 13.9555C67.4382 14.177 67.7528 14.2877 68.159 14.2877C68.6204 14.2877 68.9789 14.1374 69.2337 13.8369C69.4885 13.5285 69.6156 13.1014 69.6156 12.5557V9.56604H71.1203V15.4504H69.6394V14.6792H69.4249C69.329 14.877 69.15 15.0707 68.8873 15.2605C68.6246 15.4504 68.2263 15.5452 67.6929 15.5452Z" fill="#192657"/>
<path d="M72.2576 15.4504V9.56604H73.7379V10.2067H73.953C74.0563 10.0089 74.2279 9.83892 74.4662 9.69653C74.7051 9.5463 75.0197 9.47116 75.4101 9.47116C75.8317 9.47116 76.1701 9.5542 76.4249 9.72027C76.6796 9.87844 76.8745 10.088 77.0101 10.349H77.2246C77.3602 10.096 77.5514 9.88639 77.7983 9.72027C78.0451 9.5542 78.3952 9.47116 78.8491 9.47116C79.2151 9.47116 79.5456 9.55025 79.8401 9.70843C80.1425 9.85866 80.3814 10.092 80.5567 10.4084C80.7394 10.7168 80.831 11.1083 80.831 11.5829V15.4504H79.3263V11.6896C79.3263 11.3653 79.2431 11.1241 79.0758 10.9659C78.9084 10.7999 78.6738 10.7168 78.3713 10.7168C78.0292 10.7168 77.7622 10.8276 77.571 11.049C77.3883 11.2625 77.2967 11.571 77.2967 11.9744V15.4504H75.7919V11.6896C75.7919 11.3653 75.7082 11.1241 75.5414 10.9659C75.374 10.7999 75.1394 10.7168 74.8364 10.7168C74.4943 10.7168 74.2279 10.8276 74.0367 11.049C73.8534 11.2625 73.7618 11.571 73.7618 11.9744V15.4504H72.2576Z" fill="#192657"/>
</g>
<defs>
<linearGradient id="paint0_linear_10_55302" x1="3.19821" y1="5.24698" x2="16.6321" y2="5.24699" gradientUnits="userSpaceOnUse">
<stop stop-color="#64C2DB"/>
<stop offset="0.307292" stop-color="#7476ED"/>
<stop offset="0.604167" stop-color="#C994DF"/>
<stop offset="1" stop-color="#E56F8C"/>
</linearGradient>
<clipPath id="clip0_10_55302">
<rect width="81.0367" height="21.6" fill="white" transform="translate(0.244873 0.600159)"/>
</clipPath>
</defs>
</svg>
