<svg width="52" height="15" viewBox="0 0 52 15" fill="none" xmlns="http://www.w3.org/2000/svg">
<g clip-path="url(#clip0_10_25803)">
<path d="M15.5095 10.4291H19.1738V9.27204H16.8119V4.91394H15.5095V10.4291Z" fill="#2F234F"/>
<path d="M21.3449 9.65769C20.8225 9.65769 20.5503 9.17946 20.5503 8.46211C20.5503 7.74476 20.8225 7.25881 21.3449 7.25881C21.8674 7.25881 22.147 7.74476 22.147 8.46211C22.147 9.17946 21.8674 9.65769 21.3449 9.65769ZM21.3523 10.5525C22.5664 10.5525 23.3611 9.64998 23.3611 8.46211C23.3611 7.27424 22.5664 6.37177 21.3523 6.37177C20.1456 6.37177 19.3362 7.27424 19.3362 8.46211C19.3362 9.64998 20.1456 10.5525 21.3523 10.5525Z" fill="#2F234F"/>
<path d="M25.4625 11.7944C26.0217 11.7944 26.5147 11.6633 26.8458 11.3547C27.1475 11.0693 27.3461 10.6374 27.3461 10.0434V6.47984H26.1983V6.90408H26.1835C25.9628 6.5724 25.6243 6.36414 25.124 6.36414C24.1895 6.36414 23.542 7.18176 23.542 8.33878C23.542 9.54979 24.3293 10.2131 25.1755 10.2131C25.6317 10.2131 25.9187 10.0203 26.1394 9.75805H26.1688V10.1514C26.1688 10.6297 25.9554 10.9074 25.4477 10.9074C25.0504 10.9074 24.8517 10.7299 24.7855 10.5217H23.6229C23.7407 11.347 24.425 11.7944 25.4625 11.7944ZM25.4551 9.27982C25.0063 9.27982 24.7119 8.89415 24.7119 8.30021C24.7119 7.69856 25.0063 7.31289 25.4551 7.31289C25.9554 7.31289 26.2203 7.76027 26.2203 8.2925C26.2203 8.84787 25.9775 9.27982 25.4551 9.27982Z" fill="#2F234F"/>
<path d="M29.7064 9.65769C29.184 9.65769 28.9117 9.17946 28.9117 8.46211C28.9117 7.74476 29.184 7.25881 29.7064 7.25881C30.2288 7.25881 30.5084 7.74476 30.5084 8.46211C30.5084 9.17946 30.2288 9.65769 29.7064 9.65769ZM29.7137 10.5525C30.9278 10.5525 31.7226 9.64998 31.7226 8.46211C31.7226 7.27424 30.9278 6.37177 29.7137 6.37177C28.507 6.37177 27.6976 7.27424 27.6976 8.46211C27.6976 9.64998 28.507 10.5525 29.7137 10.5525Z" fill="#2F234F"/>
<path d="M32.0726 10.4291H33.272V6.47977H32.0726V10.4291ZM32.0726 5.93212H33.272V4.91394H32.0726V5.93212Z" fill="#2F234F"/>
<path d="M33.7924 11.7327H34.9917V10.0203H35.0064C35.2419 10.352 35.5877 10.5525 36.0734 10.5525C37.0593 10.5525 37.7142 9.73491 37.7142 8.45448C37.7142 7.26661 37.1035 6.36414 36.1028 6.36414C35.5877 6.36414 35.2198 6.60325 34.9623 6.95807H34.9402V6.47984H33.7924V11.7327ZM35.7643 9.58064C35.2493 9.58064 34.9549 9.14098 34.9549 8.50076C34.9549 7.86054 35.2198 7.3746 35.7423 7.3746C36.2573 7.3746 36.5001 7.82198 36.5001 8.50076C36.5001 9.17183 36.2205 9.58064 35.7643 9.58064Z" fill="#2F234F"/>
<path d="M39.6672 10.5525C40.6532 10.5525 41.3817 10.1052 41.3817 9.24125C41.3817 8.23079 40.6017 8.05338 39.9395 7.93768C39.4612 7.84512 39.0345 7.80655 39.0345 7.52887C39.0345 7.28204 39.2626 7.16633 39.5569 7.16633C39.888 7.16633 40.1161 7.27432 40.1602 7.62914H41.264C41.2051 6.85008 40.6312 6.36414 39.5642 6.36414C38.6739 6.36414 37.9381 6.79609 37.9381 7.62914C37.9381 8.55475 38.6371 8.73988 39.292 8.85558C39.7923 8.94814 40.2485 8.98671 40.2485 9.34153C40.2485 9.59607 40.0204 9.73491 39.6599 9.73491C39.2626 9.73491 39.0124 9.54208 38.9682 9.14869H37.8351C37.8719 10.0203 38.5635 10.5525 39.6672 10.5525Z" fill="#2F234F"/>
<path d="M43.0106 10.5448C43.533 10.5448 43.8642 10.3288 44.1364 9.94313H44.1585V10.4291H45.3063V6.4798H44.107V8.68584C44.107 9.15636 43.8568 9.48033 43.4447 9.48033C43.0621 9.48033 42.8782 9.24121 42.8782 8.80926V6.4798H41.6862V9.07151C41.6862 9.95085 42.1424 10.5448 43.0106 10.5448Z" fill="#2F234F"/>
<path d="M45.8281 10.4291H47.0275V8.21536C47.0275 7.74484 47.2482 7.41316 47.6235 7.41316C47.984 7.41316 48.1533 7.66 48.1533 8.08423V10.4291H49.3526V8.21536C49.3526 7.74484 49.566 7.41316 49.9487 7.41316C50.3092 7.41316 50.4784 7.66 50.4784 8.08423V10.4291H51.6778V7.86054C51.6778 6.9735 51.251 6.36414 50.3975 6.36414C49.9119 6.36414 49.5072 6.58011 49.2128 7.05835H49.1981C49.0068 6.63411 48.6316 6.36414 48.1386 6.36414C47.5941 6.36414 47.2335 6.63411 46.9981 7.04292H46.976V6.47984H45.8281V10.4291Z" fill="#2F234F"/>
<path fill-rule="evenodd" clip-rule="evenodd" d="M3.25326 2.42568C2.81464 2.74719 2.418 3.12732 2.07369 3.55523C3.48071 3.41829 5.26828 3.64189 7.34363 4.72969C9.55982 5.89127 11.3444 5.93054 12.5864 5.67941C12.4737 5.32173 12.3318 4.97796 12.1638 4.65117C10.742 4.80837 8.91936 4.6003 6.7952 3.48696C5.44634 2.77995 4.25734 2.48872 3.25326 2.42568ZM11.3332 3.41196C10.2105 2.09693 8.57886 1.26935 6.76283 1.26935C6.22952 1.26935 5.71206 1.34073 5.21876 1.47487C5.88688 1.66598 6.59663 1.94556 7.34363 2.3371C8.89882 3.15224 10.2415 3.4147 11.3332 3.41196ZM12.8519 6.9349C11.3515 7.24549 9.27954 7.1817 6.7952 5.87954C4.47262 4.66216 2.62405 4.67749 1.37731 4.96794C1.31295 4.98291 1.25011 4.99866 1.18879 5.01505C1.02556 5.3872 0.895269 5.77852 0.801781 6.18489C0.901631 6.15693 1.00481 6.13035 1.11127 6.10554C2.62379 5.7532 4.76085 5.7685 7.34363 7.12227C9.66624 8.33964 11.5148 8.32431 12.7616 8.03387C12.8043 8.02394 12.8464 8.01365 12.8878 8.00305C12.8923 7.90171 12.8946 7.79974 12.8946 7.69721C12.8946 7.43929 12.8801 7.18491 12.8519 6.9349ZM12.6876 9.35956C11.2017 9.63187 9.19008 9.52735 6.7952 8.27212C4.47262 7.05475 2.62405 7.07008 1.37731 7.36052C1.10056 7.42496 0.851613 7.50348 0.632002 7.58636C0.631403 7.62323 0.631104 7.66019 0.631104 7.69721C0.631104 11.2472 3.37637 14.1251 6.76283 14.1251C9.60093 14.1251 11.9887 12.1038 12.6876 9.35956Z" fill="#7F57F1"/>
</g>
<defs>
<clipPath id="clip0_10_25803">
<rect width="51.2" height="14.4" fill="white" transform="translate(0.600098 0.399963)"/>
</clipPath>
</defs>
</svg>
