<svg width="52" height="15" viewBox="0 0 52 15" fill="none" xmlns="http://www.w3.org/2000/svg">
<g clip-path="url(#clip0_10_25713)">
<path d="M4.2509 10.6631C3.2645 11.6972 1.59391 11.693 1.12736 10.3149C1.03602 10.0451 0.962983 9.76765 0.909268 9.48457C0.689949 8.3287 0.802512 7.13066 1.23272 6.04187C1.66293 4.95311 2.39146 4.02251 3.32619 3.36778C4.26094 2.71305 5.35989 2.36359 6.48408 2.36359C7.60826 2.36359 8.70721 2.71305 9.64193 3.36778C10.5767 4.02251 11.3052 4.95311 11.7354 6.0419C12.1656 7.13066 12.2782 8.3287 12.0589 9.48457C12.0052 9.76765 11.9321 10.0451 11.8408 10.3149C11.3742 11.693 9.70363 11.6972 8.71722 10.6631L7.19457 9.06693C7.04909 8.91443 7.06412 8.66293 7.10426 8.45142C7.12863 8.32285 7.11611 8.18957 7.06825 8.06844C7.02039 7.94732 6.93936 7.84378 6.83537 7.77096C6.73139 7.69814 6.60914 7.65925 6.48408 7.65925C6.35902 7.65925 6.23676 7.69814 6.13278 7.77096C6.02876 7.84378 5.94773 7.94732 5.89987 8.06844C5.852 8.18957 5.83948 8.32285 5.86389 8.45142C5.90403 8.66293 5.91903 8.91443 5.77355 9.06693L4.2509 10.6631Z" fill="url(#paint0_linear_10_25713)"/>
<path d="M16.7925 9.23254H18.3203V10.1764H15.6261V5.15692H16.7925V9.23254Z" fill="#3A3B7B"/>
<path d="M20.4046 10.2336C20.0317 10.2336 19.6952 10.1502 19.3951 9.98337C19.0995 9.81654 18.8653 9.5782 18.6926 9.26835C18.5243 8.9585 18.4402 8.59623 18.4402 8.18149C18.4402 7.77157 18.5266 7.41165 18.6994 7.10181C18.8722 6.78721 19.1086 6.54648 19.4087 6.37965C19.7089 6.21281 20.0454 6.12939 20.4182 6.12939C20.7911 6.12939 21.1276 6.21281 21.4277 6.37965C21.7278 6.54648 21.9643 6.78721 22.1371 7.10181C22.3098 7.41165 22.3963 7.77157 22.3963 8.18149C22.3963 8.59145 22.3076 8.95372 22.1303 9.26835C21.9575 9.5782 21.7187 9.81654 21.414 9.98337C21.1139 10.1502 20.7774 10.2336 20.4046 10.2336ZM20.4046 9.17537C20.6274 9.17537 20.8161 9.0896 20.9707 8.91799C21.1299 8.74637 21.2094 8.5009 21.2094 8.18149C21.2094 7.86212 21.1321 7.61665 20.9775 7.44503C20.8275 7.27342 20.641 7.18761 20.4182 7.18761C20.1909 7.18761 20.0021 7.27342 19.8521 7.44503C19.702 7.61187 19.627 7.85734 19.627 8.18149C19.627 8.5009 19.6998 8.74637 19.8453 8.91799C19.9953 9.0896 20.1818 9.17537 20.4046 9.17537Z" fill="#3A3B7B"/>
<path d="M24.2564 6.12939C24.5247 6.12939 24.7589 6.1866 24.959 6.30101C25.1636 6.41538 25.3205 6.56556 25.4296 6.75144V6.1866H26.5959V10.1693C26.5959 10.5363 26.5255 10.8676 26.3845 11.1631C26.2481 11.4635 26.0366 11.7018 25.7502 11.8782C25.4683 12.0546 25.1158 12.1427 24.693 12.1427C24.1291 12.1427 23.6721 12.0021 23.3219 11.7209C22.9718 11.4444 22.7717 11.0678 22.7217 10.5911H23.8744C23.9108 10.7437 23.9972 10.8628 24.1336 10.9487C24.27 11.0392 24.4383 11.0845 24.6384 11.0845C24.8794 11.0845 25.0703 11.0106 25.2113 10.8628C25.3568 10.7198 25.4296 10.4887 25.4296 10.1693V9.60441C25.3159 9.79029 25.159 9.94286 24.959 10.062C24.7589 10.1764 24.5247 10.2336 24.2564 10.2336C23.9427 10.2336 23.6584 10.1502 23.4038 9.98337C23.1492 9.81176 22.9468 9.57103 22.7968 9.26118C22.6513 8.94659 22.5785 8.58432 22.5785 8.17436C22.5785 7.7644 22.6513 7.40452 22.7968 7.09467C22.9468 6.78482 23.1492 6.54648 23.4038 6.37965C23.6584 6.21281 23.9427 6.12939 24.2564 6.12939ZM25.4296 8.18149C25.4296 7.87642 25.3477 7.63569 25.184 7.45934C25.0249 7.28298 24.8293 7.19478 24.5975 7.19478C24.3655 7.19478 24.1677 7.28298 24.004 7.45934C23.8449 7.63095 23.7653 7.86929 23.7653 8.17436C23.7653 8.47943 23.8449 8.72255 24.004 8.90369C24.1677 9.08004 24.3655 9.16824 24.5975 9.16824C24.8293 9.16824 25.0249 9.08004 25.184 8.90369C25.3477 8.72729 25.4296 8.4866 25.4296 8.18149Z" fill="#3A3B7B"/>
<path d="M28.9676 10.2336C28.5947 10.2336 28.2582 10.1502 27.9581 9.98337C27.6625 9.81654 27.4283 9.5782 27.2555 9.26835C27.0873 8.9585 27.0032 8.59623 27.0032 8.18149C27.0032 7.77157 27.0896 7.41165 27.2624 7.10181C27.4352 6.78721 27.6716 6.54648 27.9717 6.37965C28.2718 6.21281 28.6083 6.12939 28.9812 6.12939C29.3541 6.12939 29.6906 6.21281 29.9907 6.37965C30.2908 6.54648 30.5273 6.78721 30.7 7.10181C30.8728 7.41165 30.9593 7.77157 30.9593 8.18149C30.9593 8.59145 30.8706 8.95372 30.6932 9.26835C30.5205 9.5782 30.2817 9.81654 29.977 9.98337C29.6769 10.1502 29.3404 10.2336 28.9676 10.2336ZM28.9676 9.17537C29.1904 9.17537 29.3791 9.0896 29.5337 8.91799C29.6929 8.74637 29.7724 8.5009 29.7724 8.18149C29.7724 7.86212 29.6951 7.61665 29.5405 7.44503C29.3904 7.27342 29.204 7.18761 28.9812 7.18761C28.7539 7.18761 28.5651 7.27342 28.4151 7.44503C28.265 7.61187 28.19 7.85734 28.19 8.18149C28.19 8.5009 28.2628 8.74637 28.4083 8.91799C28.5583 9.0896 28.7448 9.17537 28.9676 9.17537Z" fill="#3A3B7B"/>
<path d="M31.96 5.77183C31.7554 5.77183 31.5871 5.70986 31.4553 5.58592C31.3279 5.45722 31.2643 5.29991 31.2643 5.11401C31.2643 4.92334 31.3279 4.76603 31.4553 4.64209C31.5871 4.51339 31.7554 4.44904 31.96 4.44904C32.1601 4.44904 32.3238 4.51339 32.4511 4.64209C32.583 4.76603 32.6489 4.92334 32.6489 5.11401C32.6489 5.29991 32.583 5.45722 32.4511 5.58592C32.3238 5.70986 32.1601 5.77183 31.96 5.77183ZM32.5398 6.18655V10.1764H31.3734V6.18655H32.5398Z" fill="#3A3B7B"/>
<path d="M34.3466 6.75144C34.4602 6.56556 34.6171 6.41538 34.8173 6.30101C35.0175 6.1866 35.2517 6.12939 35.5199 6.12939C35.8337 6.12939 36.1178 6.21281 36.3724 6.37965C36.6271 6.54648 36.8273 6.78482 36.9726 7.09467C37.1226 7.40452 37.1979 7.7644 37.1979 8.17436C37.1979 8.58432 37.1226 8.94659 36.9726 9.26118C36.8273 9.57103 36.6271 9.81176 36.3724 9.98337C36.1178 10.1502 35.8337 10.2336 35.5199 10.2336C35.2559 10.2336 35.0221 10.1764 34.8173 10.062C34.6171 9.9476 34.4602 9.79985 34.3466 9.61871V12.0784H33.1803V6.1866H34.3466V6.75144ZM36.0111 8.17436C36.0111 7.86929 35.9291 7.63095 35.7653 7.45934C35.6061 7.28298 35.4086 7.19478 35.172 7.19478C34.9402 7.19478 34.7423 7.28298 34.5785 7.45934C34.4196 7.63569 34.34 7.87642 34.34 8.18149C34.34 8.4866 34.4196 8.72729 34.5785 8.90369C34.7423 9.08004 34.9402 9.16824 35.172 9.16824C35.4039 9.16824 35.6018 9.08004 35.7653 8.90369C35.9291 8.72255 36.0111 8.47943 36.0111 8.17436Z" fill="#3A3B7B"/>
<path d="M39.1535 10.2336C38.8216 10.2336 38.5259 10.174 38.2666 10.0549C38.0076 9.93569 37.8028 9.77363 37.6529 9.56864C37.5029 9.3589 37.4187 9.12534 37.4005 8.86792H38.5533C38.5669 9.00615 38.6283 9.11817 38.7373 9.20398C38.8467 9.28978 38.9808 9.33269 39.14 9.33269C39.2853 9.33269 39.3967 9.30408 39.4739 9.24688C39.5559 9.18493 39.5968 9.10626 39.5968 9.01093C39.5968 8.89652 39.54 8.8131 39.4264 8.76067C39.3127 8.70347 39.1284 8.64152 38.8738 8.57476C38.6009 8.50803 38.3736 8.43891 38.1916 8.36741C38.01 8.29116 37.8531 8.17436 37.7213 8.01705C37.5891 7.85499 37.5234 7.63808 37.5234 7.36639C37.5234 7.13758 37.5825 6.93023 37.7008 6.74431C37.8233 6.55365 38.0007 6.40347 38.2326 6.29384C38.4691 6.18421 38.7489 6.12939 39.0716 6.12939C39.5489 6.12939 39.9242 6.25333 40.197 6.50119C40.4745 6.74909 40.6337 7.07798 40.6747 7.48794H39.5968C39.5787 7.3497 39.5195 7.24007 39.4194 7.15901C39.324 7.07798 39.1968 7.03747 39.0376 7.03747C38.9012 7.03747 38.7965 7.06607 38.7238 7.12327C38.6511 7.1757 38.6148 7.2496 38.6148 7.34493C38.6148 7.45934 38.6716 7.54514 38.7852 7.60235C38.9035 7.65955 39.0852 7.71676 39.3309 7.77393C39.6127 7.85021 39.8423 7.9265 40.0196 8.00275C40.197 8.07425 40.3516 8.19341 40.4834 8.36028C40.6198 8.52233 40.6905 8.74159 40.6951 9.0181C40.6951 9.25166 40.6314 9.4614 40.5039 9.64731C40.3813 9.82845 40.2016 9.97146 39.9651 10.0763C39.7332 10.1812 39.4627 10.2336 39.1535 10.2336Z" fill="#3A3B7B"/>
<path d="M44.9622 6.18652V10.1763H43.7959V9.63294C43.6776 9.80929 43.5161 9.95231 43.3116 10.0619C43.1114 10.1668 42.8888 10.2192 42.643 10.2192C42.352 10.2192 42.095 10.1525 41.8724 10.019C41.6494 9.8808 41.4767 9.68297 41.3541 9.42559C41.2312 9.16816 41.1698 8.86548 41.1698 8.51748V6.18652H42.3292V8.35303C42.3292 8.61998 42.3953 8.82732 42.5271 8.97512C42.6589 9.12287 42.8363 9.19677 43.0592 9.19677C43.2865 9.19677 43.4662 9.12287 43.598 8.97512C43.7298 8.82732 43.7959 8.61998 43.7959 8.35303V6.18652H44.9622Z" fill="#3A3B7B"/>
<path d="M50.4519 6.14362C50.9246 6.14362 51.2998 6.29376 51.5773 6.59409C51.859 6.89438 52.0001 7.31146 52.0001 7.84535V10.1763H50.8407V8.00983C50.8407 7.75241 50.7746 7.55458 50.6428 7.41635C50.5153 7.27334 50.3382 7.20183 50.1106 7.20183C49.8834 7.20183 49.7037 7.27334 49.5719 7.41635C49.4447 7.55458 49.381 7.75241 49.381 8.00983V10.1763H48.2212V8.00983C48.2212 7.75241 48.1555 7.55458 48.0237 7.41635C47.8962 7.27334 47.7188 7.20183 47.4915 7.20183C47.2643 7.20183 47.0846 7.27334 46.9528 7.41635C46.8253 7.55458 46.7618 7.75241 46.7618 8.00983V10.1763H45.5955V6.18652H46.7618V6.68703C46.8801 6.52019 47.0347 6.38909 47.2256 6.29376C47.4165 6.19365 47.6326 6.14362 47.8734 6.14362C48.1601 6.14362 48.4148 6.20795 48.6374 6.33666C48.8647 6.46537 49.042 6.6489 49.1696 6.88724C49.3013 6.66795 49.481 6.4892 49.7083 6.35097C49.9356 6.21273 50.1836 6.14362 50.4519 6.14362Z" fill="#3A3B7B"/>
</g>
<defs>
<linearGradient id="paint0_linear_10_25713" x1="11.6507" y1="5.34285" x2="1.56156" y2="5.34285" gradientUnits="userSpaceOnUse">
<stop stop-color="#64C2DB"/>
<stop offset="0.510417" stop-color="#7476ED"/>
<stop offset="1" stop-color="#E56F8C"/>
</linearGradient>
<clipPath id="clip0_10_25713">
<rect width="51.2" height="14.4" fill="white" transform="translate(0.800171 0.399963)"/>
</clipPath>
</defs>
</svg>
