<svg width="82" height="23" viewBox="0 0 82 23" fill="none" xmlns="http://www.w3.org/2000/svg">
<path d="M12.4443 16.5102L1.90956 9.2906C0.841991 8.55901 1.20489 7.03575 2.53613 6.67754L13.7327 3.65845C13.9699 3.57343 14.224 3.54582 14.4741 3.57794C14.7242 3.61006 14.9629 3.70096 15.1706 3.84311C15.3782 3.98526 15.5487 4.17456 15.6679 4.39529C15.7871 4.61602 15.8516 4.86182 15.8561 5.11228L15.1925 15.3504C15.1139 16.5656 13.5119 17.2417 12.4443 16.5102Z" fill="#E9327C"/>
<path d="M9.10294 18.2925L2.89657 6.23425C2.75469 5.95839 2.69227 5.64896 2.71616 5.34009C2.74005 5.03122 2.84935 4.73491 3.03198 4.48383C3.21462 4.23276 3.4635 4.03666 3.75119 3.91718C4.03887 3.7977 4.35418 3.75948 4.66235 3.80673L16.1643 5.57034C16.4291 5.61095 16.6804 5.71342 16.8976 5.86934C17.1148 6.02525 17.2916 6.23016 17.4135 6.4672C17.5355 6.70424 17.599 6.96665 17.599 7.23285C17.5989 7.49905 17.5353 7.76145 17.4133 7.99845L12.1148 18.2931C11.9725 18.5682 11.7567 18.799 11.4909 18.96C11.2252 19.1212 10.92 19.2063 10.6087 19.2063C10.2974 19.2062 9.99217 19.1209 9.72651 18.9597C9.46085 18.7985 9.2451 18.5676 9.10294 18.2925Z" fill="#1DACE3"/>
<path d="M15.8278 5.51837L10.0942 4.63919L3.05457 6.53815L5.86443 11.9993L12.4443 16.5102C12.5894 16.6086 12.7491 16.684 12.9176 16.7336L15.4168 11.878L15.8278 5.51837Z" fill="#001A49"/>
<path d="M44.87 6.9279C44.87 6.71616 44.9332 6.50919 45.0516 6.33314C45.17 6.15709 45.3383 6.01988 45.5352 5.93885C45.7321 5.85783 45.9487 5.83663 46.1578 5.87793C46.3668 5.91924 46.5588 6.0212 46.7095 6.17091C46.8602 6.32063 46.9628 6.51138 47.0044 6.71905C47.0459 6.92671 47.0246 7.14196 46.9431 7.33758C46.8615 7.53319 46.7234 7.70039 46.5462 7.81802C46.369 7.93565 46.1607 7.99843 45.9475 7.99843C45.6626 7.99555 45.3903 7.88184 45.1888 7.68169C44.9874 7.48155 44.8729 7.21093 44.87 6.9279ZM45.0497 8.52173H46.846V14.4689H45.0497V8.52173Z" fill="#001A49"/>
<path d="M54.6033 11.4953C54.6242 11.8884 54.5666 12.2817 54.4339 12.6526C54.3012 13.0235 54.096 13.3647 53.8302 13.6566C53.5643 13.9484 53.243 14.1852 52.8846 14.3532C52.5263 14.5213 52.1381 14.6173 51.7423 14.6357C51.4094 14.6537 51.0766 14.5979 50.768 14.4724C50.4595 14.3469 50.1829 14.1548 49.9583 13.91V16.848H48.1626V8.52169H49.9583V9.08059C50.183 8.83585 50.4596 8.64386 50.7682 8.51843C51.0767 8.39302 51.4095 8.33733 51.7423 8.35541C52.1381 8.37378 52.5262 8.46972 52.8846 8.63767C53.2429 8.80569 53.5642 9.04238 53.8301 9.33419C54.096 9.62601 54.3012 9.96712 54.4339 10.338C54.5666 10.7089 54.6242 11.1022 54.6033 11.4953ZM52.8075 11.4953C52.8005 11.2168 52.7109 10.9466 52.5501 10.7185C52.3892 10.4904 52.1642 10.3144 51.9033 10.2127C51.6422 10.111 51.3569 10.0881 51.0828 10.1467C50.8087 10.2053 50.5581 10.3429 50.3624 10.5424C50.1667 10.7418 50.0345 10.9941 49.9824 11.2678C49.9303 11.5415 49.9607 11.8244 50.0696 12.081C50.1785 12.3376 50.3612 12.5567 50.5948 12.7107C50.8285 12.8647 51.1026 12.9468 51.3829 12.9468C51.5755 12.9554 51.7676 12.9234 51.9468 12.8531C52.1261 12.7827 52.2882 12.6754 52.4228 12.5383C52.5573 12.4012 52.6611 12.2375 52.7275 12.0577C52.7938 11.8779 52.8211 11.6862 52.8075 11.4953Z" fill="#001A49"/>
<path d="M60.1462 12.6837C60.1462 14.0518 58.9488 14.6346 57.6558 14.6346C57.1335 14.6815 56.6089 14.5717 56.1501 14.3193C55.6912 14.0669 55.3192 13.6835 55.082 13.2187L56.6382 12.3389C56.7015 12.5538 56.837 12.7405 57.0223 12.8679C57.2075 12.9953 57.4312 13.0557 57.6558 13.039C58.0869 13.039 58.3018 12.9077 58.3018 12.6703C58.3018 12.0157 55.3569 12.3611 55.3569 10.3028C55.3569 9.00653 56.4579 8.35254 57.7057 8.35254C58.1738 8.33794 58.6372 8.44828 59.0475 8.67207C59.4585 8.89586 59.8009 9.2249 60.0399 9.62493L58.5079 10.4458C58.4409 10.2897 58.3291 10.1566 58.1864 10.0632C58.0437 9.96984 57.8766 9.92031 57.7057 9.92072C57.3945 9.92072 57.2031 10.0374 57.2031 10.2538C57.2013 10.9364 60.1462 10.4843 60.1462 12.6837Z" fill="#001A49"/>
<path d="M66.7095 8.52176V14.4689H64.9137V13.9089C64.7064 14.1556 64.4428 14.35 64.145 14.4762C63.8479 14.6023 63.5244 14.6566 63.2014 14.6346C61.9923 14.6346 60.9629 13.7782 60.9629 12.1721V8.52176H62.7586V11.9119C62.7433 12.0537 62.7598 12.197 62.8062 12.3319C62.8526 12.4668 62.9277 12.59 63.027 12.6931C63.1262 12.7961 63.2466 12.8764 63.3799 12.9283C63.5138 12.9804 63.6571 13.0028 63.8004 12.9941C64.4586 12.9941 64.9161 12.6137 64.9161 11.769V8.52176H66.7095Z" fill="#001A49"/>
<path d="M77.0023 10.8168V14.4689H75.2066V10.972C75.2066 10.3775 74.9188 9.99656 74.3445 9.99656C73.7456 9.99656 73.4108 10.4131 73.4108 11.1149V14.4689H71.6145V10.972C71.6145 10.3775 71.3274 9.99656 70.7525 9.99656C70.1541 9.99656 69.8188 10.4131 69.8188 11.1149V14.4689H68.0231V8.52173H69.8217V9.06662C70.0079 8.82399 70.2522 8.63158 70.5323 8.50691C70.8124 8.38229 71.1201 8.32942 71.426 8.35313C71.7331 8.3382 72.0397 8.40263 72.3145 8.54016C72.5893 8.67767 72.8236 8.88355 72.9945 9.1378C73.1936 8.87182 73.4572 8.66028 73.7608 8.52307C74.0644 8.38582 74.3985 8.32736 74.7309 8.35313C76.105 8.35546 77.0023 9.33032 77.0023 10.8168Z" fill="#001A49"/>
<path d="M78.5238 8.48496C79.2602 8.48496 79.8568 7.89205 79.8568 7.16065C79.8568 6.42925 79.2602 5.83633 78.5238 5.83633C77.7874 5.83633 77.1908 6.42925 77.1908 7.16065C77.1908 7.89205 77.7874 8.48496 78.5238 8.48496Z" fill="#001A49"/>
<path d="M20.3525 5.78616H22.1489V14.4689H20.3525V5.78616ZM23.1659 11.4953C23.164 10.8718 23.3483 10.2617 23.6955 9.7424C24.0427 9.223 24.5373 8.81765 25.1165 8.5777C25.6958 8.33774 26.3336 8.27393 26.9495 8.39437C27.5652 8.51481 28.1312 8.81403 28.5757 9.25427C29.0201 9.69444 29.3231 10.2557 29.4463 10.8671C29.5694 11.4785 29.5072 12.1125 29.2675 12.6887C29.0278 13.2649 28.6214 13.7575 28.0997 14.1041C27.578 14.4507 26.9645 14.6358 26.3369 14.6358C25.9201 14.6402 25.5066 14.562 25.1205 14.4059C24.7345 14.2498 24.3835 14.0188 24.0883 13.7264C23.7931 13.434 23.5595 13.0862 23.4011 12.7031C23.2427 12.32 23.1628 11.9094 23.1659 11.4953ZM27.7157 11.4953C27.7087 11.2263 27.622 10.9654 27.4664 10.7452C27.311 10.525 27.0935 10.3551 26.8413 10.257C26.5891 10.1589 26.3135 10.1368 26.0488 10.1936C25.7841 10.2503 25.5421 10.3834 25.353 10.576C25.164 10.7687 25.0364 11.0125 24.9861 11.2768C24.9358 11.5412 24.9651 11.8144 25.0703 12.0623C25.1755 12.3102 25.3519 12.5218 25.5775 12.6707C25.8031 12.8195 26.0679 12.8989 26.3387 12.899C26.5241 12.9042 26.7087 12.8712 26.8806 12.8021C27.0526 12.733 27.2083 12.6292 27.3379 12.4973C27.4675 12.3655 27.5682 12.2084 27.6336 12.0359C27.699 11.8634 27.7278 11.6793 27.7181 11.4953H27.7157ZM36.6703 8.52V14.1702C36.6703 16.1684 35.1018 17.0125 33.5098 17.0125C32.9495 17.0545 32.3883 16.9425 31.8878 16.6886C31.3873 16.4347 30.9668 16.0488 30.6724 15.5733L32.2045 14.6929C32.3281 14.9411 32.5251 15.1459 32.7691 15.2799C33.0131 15.4139 33.2924 15.4706 33.5697 15.4426C33.7468 15.4666 33.927 15.4508 34.097 15.3964C34.2671 15.342 34.4226 15.2504 34.5523 15.1282C34.6819 15.0061 34.7822 14.8567 34.846 14.6908C34.9097 14.525 34.9351 14.3471 34.9204 14.1702V13.623C34.71 13.8785 34.4423 14.0815 34.1388 14.2158C33.8352 14.35 33.5042 14.4118 33.1722 14.396C32.3821 14.3716 31.6325 14.0426 31.0823 13.4787C30.532 12.9147 30.2243 12.1602 30.2243 11.3749C30.2243 10.5894 30.532 9.83492 31.0823 9.27101C31.6325 8.7071 32.3821 8.3781 33.1722 8.3537C33.5042 8.33793 33.8352 8.39963 34.1388 8.53389C34.4423 8.66813 34.71 8.87115 34.9204 9.12674V8.52H36.6703ZM34.9227 11.3746C34.9346 11.0873 34.8596 10.8031 34.7076 10.5585C34.5556 10.3139 34.3334 10.12 34.0695 10.0019C33.8058 9.88376 33.5124 9.84671 33.2272 9.89554C32.9421 9.94437 32.6781 10.0768 32.4693 10.2759C32.2605 10.4749 32.1164 10.7314 32.0555 11.0125C31.9946 11.2935 32.0198 11.5862 32.1277 11.853C32.2356 12.1198 32.4214 12.3483 32.6611 12.5093C32.9008 12.6704 33.1835 12.7565 33.4729 12.7566C33.6615 12.7698 33.8509 12.7436 34.0288 12.6797C34.2066 12.6158 34.3691 12.5156 34.5057 12.3856C34.6422 12.2556 34.7499 12.0986 34.8217 11.9248C34.8935 11.751 34.9279 11.5641 34.9227 11.3763V11.3746ZM37.6874 11.4913C37.6854 10.8677 37.8697 10.2577 38.2169 9.73831C38.5641 9.21891 39.0587 8.81357 39.6379 8.57362C40.2172 8.33365 40.8551 8.26985 41.4709 8.39028C42.0866 8.51073 42.6526 8.80995 43.0971 9.25018C43.5416 9.69036 43.8446 10.2516 43.9677 10.863C44.0908 11.4745 44.0287 12.1084 43.7889 12.6846C43.5492 13.2608 43.1428 13.7534 42.6211 14.1C42.0994 14.4466 41.486 14.6317 40.8584 14.6317C40.4419 14.6361 40.0287 14.5581 39.6429 14.4022C39.2571 14.2464 38.9064 14.0157 38.6112 13.7237C38.316 13.4318 38.0824 13.0845 37.9238 12.7018C37.7651 12.3192 37.6848 11.9091 37.6874 11.4953V11.4913ZM42.2372 11.4913C42.2302 11.2221 42.1435 10.961 41.9881 10.7405C41.8325 10.5201 41.6149 10.3502 41.3627 10.2519C41.1103 10.1537 40.8345 10.1316 40.5696 10.1883C40.3047 10.2451 40.0626 10.3782 39.8735 10.5709C39.6843 10.7638 39.5566 11.0077 39.5063 11.2722C39.456 11.5367 39.4854 11.8101 39.5907 12.0581C39.696 12.3062 39.8726 12.5179 40.0984 12.6667C40.3242 12.8156 40.5892 12.8949 40.8601 12.8949C41.045 12.8998 41.2289 12.8667 41.4003 12.7977C41.5717 12.7286 41.7269 12.6251 41.8562 12.4938C41.9855 12.3624 42.0861 12.2059 42.1516 12.034C42.2172 11.8622 42.2463 11.6788 42.2372 11.4953V11.4913Z" fill="#001A49"/>
</svg>
