<svg width="37" height="15" viewBox="0 0 37 15" fill="none" xmlns="http://www.w3.org/2000/svg">
<g clip-path="url(#clip0_10_25741)">
<path d="M6.4327 9.89085H8.26344L3.72833 3.01813H1.89758L6.4327 9.89085Z" fill="#7476ED"/>
<path d="M4.53174 3.01813L9.14149 9.56358V3.01813H7.89401V5.08465L6.43861 3.01813L4.53174 3.01813Z" fill="#E56F8C"/>
<path d="M1.01953 3.3454V9.89085H2.20448V7.82974L3.58691 9.89085H5.40977L1.01953 3.3454Z" fill="#64C2DB"/>
<path d="M11.9725 8.90623H13.0928V9.89084H11.1172V4.65448H11.9725V8.90623Z" fill="#3A3B7B"/>
<path d="M14.5098 9.89084C14.2408 9.89084 13.9981 9.80437 13.7816 9.63139C13.5684 9.45845 13.3995 9.21138 13.2748 8.8902C13.1535 8.569 13.0928 8.19346 13.0928 7.76354C13.0928 7.33862 13.1551 6.96551 13.2797 6.64434C13.4044 6.31819 13.5749 6.06866 13.7914 5.89571C14.0079 5.72277 14.2506 5.63629 14.5196 5.63629C14.7886 5.63629 15.0313 5.72277 15.2478 5.89571C15.4643 6.06866 15.6348 6.31819 15.7595 6.64434C15.8841 6.96551 15.9464 7.33862 15.9464 7.76354C15.9464 8.18851 15.8825 8.56405 15.7545 8.8902C15.6299 9.21138 15.4577 9.45845 15.2379 9.63139C15.0215 9.80437 14.7787 9.89084 14.5098 9.89084ZM14.5098 8.79384C14.6705 8.79384 14.8066 8.70489 14.9181 8.527C15.0329 8.34911 15.0903 8.09465 15.0903 7.76354C15.0903 7.43248 15.0346 7.17801 14.9231 7.00012C14.8148 6.82223 14.6803 6.73329 14.5196 6.73329C14.3556 6.73329 14.2195 6.82223 14.1112 7.00012C14.003 7.17306 13.9489 7.42756 13.9489 7.76354C13.9489 8.09465 14.0013 8.34911 14.1063 8.527C14.2146 8.70489 14.349 8.79384 14.5098 8.79384Z" fill="#3A3B7B"/>
<path d="M17.1383 5.63629C17.3288 5.63629 17.4952 5.69544 17.6373 5.81374C17.7826 5.93204 17.8941 6.08732 17.9716 6.27955V5.69544H18.8001V9.81379C18.8001 10.1933 18.75 10.5359 18.6499 10.8415C18.553 11.152 18.4028 11.3985 18.1993 11.5809C17.999 11.7633 17.7487 11.8545 17.4483 11.8545C17.0478 11.8545 16.7232 11.709 16.4745 11.4182C16.2258 11.1323 16.0837 10.7429 16.0482 10.25H16.867C16.8928 10.4077 16.9542 10.531 17.051 10.6197C17.148 10.7133 17.2675 10.7602 17.4096 10.7602C17.5808 10.7602 17.7164 10.6838 17.8166 10.531C17.9199 10.3831 17.9716 10.144 17.9716 9.81379V9.22967C17.8908 9.42189 17.7794 9.57963 17.6373 9.70288C17.4952 9.82116 17.3288 9.88033 17.1383 9.88033C16.9154 9.88033 16.7135 9.79408 16.5327 9.62153C16.3518 9.44408 16.208 9.19518 16.1015 8.87477C15.9981 8.54945 15.9464 8.17484 15.9464 7.75092C15.9464 7.32701 15.9981 6.95486 16.1015 6.63445C16.208 6.31407 16.3518 6.06759 16.5327 5.89507C16.7135 5.72255 16.9154 5.63629 17.1383 5.63629ZM17.9716 7.75829C17.9716 7.44285 17.9135 7.19392 17.7972 7.01153C17.6841 6.82914 17.5452 6.73795 17.3805 6.73795C17.2158 6.73795 17.0753 6.82914 16.959 7.01153C16.8459 7.18898 16.7894 7.43545 16.7894 7.75092C16.7894 8.0664 16.8459 8.31776 16.959 8.50509C17.0753 8.68748 17.2158 8.77863 17.3805 8.77863C17.5452 8.77863 17.6841 8.68748 17.7972 8.50509C17.9135 8.3227 17.9716 8.07377 17.9716 7.75829Z" fill="#3A3B7B"/>
<path d="M20.5471 9.89084C20.2988 9.89084 20.0748 9.80437 19.875 9.63139C19.6782 9.45845 19.5222 9.21138 19.4072 8.8902C19.2952 8.569 19.2391 8.19346 19.2391 7.76354C19.2391 7.33862 19.2967 6.96551 19.4117 6.64434C19.5268 6.31819 19.6842 6.06866 19.8841 5.89571C20.0839 5.72277 20.3079 5.63629 20.5562 5.63629C20.8045 5.63629 21.0285 5.72277 21.2284 5.89571C21.4282 6.06866 21.5856 6.31819 21.7007 6.64434C21.8158 6.96551 21.8733 7.33862 21.8733 7.76354C21.8733 8.18851 21.8142 8.56405 21.6962 8.8902C21.5811 9.21138 21.4221 9.45845 21.2193 9.63139C21.0194 9.80437 20.7954 9.89084 20.5471 9.89084ZM20.5471 8.79384C20.6955 8.79384 20.8211 8.70489 20.9241 8.527C21.0301 8.34911 21.083 8.09465 21.083 7.76354C21.083 7.43248 21.0316 7.17801 20.9286 7.00012C20.8287 6.82223 20.7046 6.73329 20.5562 6.73329C20.4048 6.73329 20.2792 6.82223 20.1793 7.00012C20.0793 7.17306 20.0294 7.42756 20.0294 7.76354C20.0294 8.09465 20.0778 8.34911 20.1747 8.527C20.2746 8.70489 20.3988 8.79384 20.5471 8.79384Z" fill="#3A3B7B"/>
<path d="M22.6443 5.36052C22.4821 5.36052 22.3487 5.29677 22.2441 5.1693C22.1432 5.03692 22.0928 4.87512 22.0928 4.6839C22.0928 4.48779 22.1432 4.32599 22.2441 4.19851C22.3487 4.06613 22.4821 3.99994 22.6443 3.99994C22.8029 3.99994 22.9326 4.06613 23.0335 4.19851C23.1381 4.32599 23.1903 4.48779 23.1903 4.6839C23.1903 4.87512 23.1381 5.03692 23.0335 5.1693C22.9326 5.29677 22.8029 5.36052 22.6443 5.36052ZM23.1038 5.78707V9.89085H22.1793V5.78707H23.1038Z" fill="#3A3B7B"/>
<path d="M24.3941 6.28651C24.4688 6.0922 24.5715 5.93524 24.7027 5.81566C24.8338 5.69608 24.9875 5.63629 25.1634 5.63629C25.3692 5.63629 25.5555 5.72348 25.7223 5.89787C25.8894 6.07226 26.0205 6.3214 26.116 6.64525C26.2144 6.96913 26.2635 7.3453 26.2635 7.7738C26.2635 8.2023 26.2144 8.58096 26.116 8.9098C26.0205 9.23368 25.8894 9.48527 25.7223 9.66464C25.5555 9.83905 25.3692 9.92624 25.1634 9.92624C24.9905 9.92624 24.8368 9.86643 24.7027 9.74687C24.5715 9.62728 24.4688 9.47283 24.3941 9.28347V11.8545H23.6294V5.69608H24.3941V6.28651ZM25.4854 7.7738C25.4854 7.45491 25.4317 7.20578 25.3244 7.02641C25.2201 6.84205 25.0902 6.74987 24.9353 6.74987C24.7832 6.74987 24.6536 6.84205 24.5462 7.02641C24.4419 7.21077 24.3898 7.46239 24.3898 7.78125C24.3898 8.10014 24.4419 8.35176 24.5462 8.53612C24.6536 8.72048 24.7832 8.81263 24.9353 8.81263C25.0874 8.81263 25.2171 8.72048 25.3244 8.53612C25.4317 8.34677 25.4854 8.09269 25.4854 7.7738Z" fill="#3A3B7B"/>
<path d="M27.7678 9.89084C27.5244 9.89084 27.3079 9.82908 27.118 9.70552C26.9279 9.582 26.7779 9.41398 26.6681 9.20151C26.558 8.9841 26.4963 8.74194 26.483 8.4751H27.328C27.3379 8.61842 27.3829 8.73455 27.463 8.8235C27.5428 8.91244 27.6412 8.95691 27.7578 8.95691C27.8645 8.95691 27.946 8.92725 28.0029 8.86797C28.0629 8.80373 28.0929 8.72218 28.0929 8.62337C28.0929 8.50476 28.051 8.41829 27.9678 8.36392C27.8844 8.30464 27.7494 8.2404 27.5629 8.17122C27.3628 8.10204 27.1962 8.03038 27.0629 7.95628C26.9296 7.8772 26.8147 7.75616 26.7179 7.59308C26.6214 7.42509 26.573 7.20025 26.573 6.91857C26.573 6.68139 26.6163 6.46645 26.7029 6.27372C26.7929 6.07607 26.923 5.92042 27.0929 5.80677C27.2663 5.69312 27.4712 5.63629 27.7078 5.63629C28.0578 5.63629 28.3328 5.76477 28.5326 6.02172C28.7361 6.27866 28.8527 6.61963 28.8827 7.0446H28.0929C28.0793 6.90128 28.036 6.78762 27.9627 6.70363C27.8928 6.61963 27.7994 6.57763 27.6829 6.57763C27.5829 6.57763 27.5063 6.60726 27.4528 6.66658C27.3996 6.72091 27.373 6.79752 27.373 6.89633C27.373 7.01494 27.4146 7.10388 27.4978 7.16317C27.5844 7.22249 27.7179 7.28177 27.8979 7.34106C28.1045 7.42014 28.2728 7.49918 28.4027 7.57827C28.5326 7.65236 28.6461 7.77592 28.7426 7.94886C28.8428 8.11689 28.8943 8.34416 28.8977 8.63076C28.8977 8.87292 28.851 9.09033 28.7576 9.28303C28.6676 9.47082 28.536 9.61905 28.3628 9.72776C28.1928 9.83647 27.9944 9.89084 27.7678 9.89084Z" fill="#3A3B7B"/>
<path d="M31.7513 5.96356V9.84906H30.9411V9.31987C30.8591 9.49164 30.747 9.63089 30.6048 9.73767C30.4659 9.83979 30.3111 9.89083 30.1406 9.89083C29.9384 9.89083 29.7598 9.82587 29.605 9.69589C29.4503 9.56125 29.3304 9.36859 29.2451 9.11791C29.1598 8.86723 29.1172 8.57249 29.1172 8.2336V5.96356H29.9226V8.07342C29.9226 8.3334 29.9684 8.53532 30.0599 8.67923C30.1516 8.82316 30.2747 8.8951 30.4294 8.8951C30.5874 8.8951 30.7121 8.82316 30.8038 8.67923C30.8955 8.53532 30.9411 8.3334 30.9411 8.07342V5.96356H31.7513Z" fill="#3A3B7B"/>
<path d="M35.6855 5.96356C36.0259 5.96356 36.296 6.10979 36.4955 6.40223C36.6986 6.69469 36.8001 7.1009 36.8001 7.62082V9.89083H35.9653V7.78096C35.9653 7.53028 35.9181 7.33766 35.8231 7.20302C35.7314 7.06377 35.6038 6.99412 35.4401 6.99412C35.2765 6.99412 35.1472 7.06377 35.0522 7.20302C34.9608 7.33766 34.9149 7.53028 34.9149 7.78096V9.89083H34.0802V7.78096C34.0802 7.53028 34.0329 7.33766 33.9379 7.20302C33.8462 7.06377 33.7187 6.99412 33.555 6.99412C33.3913 6.99412 33.2621 7.06377 33.1671 7.20302C33.0756 7.33766 33.0298 7.53028 33.0298 7.78096V9.89083H32.1903V6.00534H33.0298V6.49277C33.1148 6.3303 33.226 6.20264 33.3635 6.10979C33.5011 6.01231 33.6564 5.96356 33.8298 5.96356C34.036 5.96356 34.2194 6.02623 34.3797 6.15157C34.5434 6.27691 34.671 6.45564 34.7627 6.68775C34.8577 6.4742 34.9869 6.30012 35.1506 6.1655C35.3142 6.03087 35.4926 5.96356 35.6855 5.96356Z" fill="#3A3B7B"/>
</g>
<defs>
<clipPath id="clip0_10_25741">
<rect width="36" height="14.4" fill="white" transform="translate(0.800171 0.399963)"/>
</clipPath>
</defs>
</svg>
