<svg width="52" height="15" viewBox="0 0 52 15" fill="none" xmlns="http://www.w3.org/2000/svg">
<path d="M8.38756 11.0066L1.73156 6.19357C1.05705 5.70585 1.28634 4.69034 2.12743 4.45153L9.20156 2.4388C9.35141 2.38212 9.51199 2.36372 9.67 2.38513C9.82798 2.40654 9.97884 2.46715 10.11 2.56191C10.2412 2.65668 10.3489 2.78288 10.4242 2.93003C10.4996 3.07718 10.5403 3.24105 10.5431 3.40802L10.1239 10.2334C10.0742 11.0436 9.06206 11.4943 8.38756 11.0066Z" fill="#E9327C"/>
<path d="M6.27655 12.1948L2.35529 4.156C2.26565 3.9721 2.22621 3.76581 2.2413 3.5599C2.2564 3.35399 2.32545 3.15644 2.44084 2.98906C2.55624 2.82167 2.71348 2.69095 2.89525 2.61129C3.07701 2.53164 3.27623 2.50616 3.47093 2.53766L10.738 3.7134C10.9053 3.74047 11.0641 3.80879 11.2013 3.91273C11.3385 4.01667 11.4502 4.15328 11.5273 4.3113C11.6043 4.46933 11.6445 4.64427 11.6445 4.82174C11.6444 4.9992 11.6042 5.17413 11.5271 5.33213L8.17948 12.1952C8.08958 12.3786 7.9532 12.5325 7.78532 12.6399C7.61743 12.7473 7.42458 12.8041 7.2279 12.804C7.03123 12.804 6.83838 12.7471 6.67053 12.6397C6.50268 12.5322 6.36637 12.3783 6.27655 12.1948Z" fill="#1DACE3"/>
<path d="M10.5254 3.67871L6.9028 3.09259L2.45508 4.35857L4.23038 7.99936L8.3876 11.0066C8.47931 11.0722 8.58019 11.1225 8.68664 11.1556L10.2657 7.91846L10.5254 3.67871Z" fill="#001A49"/>
<path d="M28.8746 4.61835C28.8746 4.4772 28.9146 4.33922 28.9894 4.22185C29.0642 4.10448 29.1705 4.01301 29.2949 3.95899C29.4193 3.90497 29.5562 3.89084 29.6883 3.91838C29.8203 3.94592 29.9416 4.01389 30.0368 4.1137C30.1321 4.21351 30.1969 4.34068 30.2232 4.47912C30.2494 4.61756 30.236 4.76106 30.1844 4.89147C30.1329 5.02188 30.0456 5.13335 29.9337 5.21177C29.8217 5.29019 29.6901 5.33205 29.5554 5.33205C29.3754 5.33012 29.2034 5.25431 29.0761 5.12089C28.9488 4.98745 28.8765 4.80704 28.8746 4.61835ZM28.9882 5.68091H30.1231V9.64569H28.9882V5.68091Z" fill="#001A49"/>
<path d="M35.0242 7.66334C35.0374 7.9254 35.0011 8.18762 34.9172 8.4349C34.8334 8.68214 34.7038 8.90963 34.5358 9.10421C34.3678 9.29876 34.1648 9.45659 33.9384 9.56864C33.712 9.68065 33.4667 9.74467 33.2167 9.75696C33.0063 9.76894 32.7961 9.73176 32.6011 9.6481C32.4062 9.5644 32.2314 9.43632 32.0895 9.27313V11.2318H30.955V5.68095H32.0895V6.05354C32.2315 5.89039 32.4062 5.76239 32.6012 5.67877C32.7961 5.59517 33.0064 5.55804 33.2167 5.57009C33.4667 5.58234 33.712 5.6463 33.9384 5.75826C34.1647 5.87028 34.3678 6.02807 34.5358 6.22261C34.7038 6.41716 34.8334 6.64457 34.9172 6.89185C35.0011 7.13909 35.0374 7.40127 35.0242 7.66334ZM33.8897 7.66334C33.8852 7.4777 33.8286 7.29758 33.727 7.14547C33.6254 6.9934 33.4832 6.8761 33.3184 6.80831C33.1534 6.74048 32.9731 6.72519 32.8 6.76428C32.6268 6.80337 32.4685 6.89512 32.3448 7.02805C32.2212 7.16099 32.1376 7.32924 32.1047 7.51169C32.0718 7.69414 32.091 7.88273 32.1598 8.05382C32.2286 8.22492 32.3441 8.37092 32.4917 8.4736C32.6393 8.57628 32.8125 8.631 32.9896 8.631C33.1113 8.63676 33.2327 8.61544 33.3459 8.56854C33.4591 8.52159 33.5616 8.45007 33.6466 8.35871C33.7316 8.26731 33.7972 8.15814 33.8391 8.03827C33.881 7.91844 33.8982 7.79063 33.8897 7.66334Z" fill="#001A49"/>
<path d="M38.5263 8.45561C38.5263 9.36766 37.7698 9.7562 36.9528 9.7562C36.6228 9.78751 36.2914 9.71428 36.0015 9.54599C35.7116 9.37773 35.4765 9.12213 35.3267 8.81226L36.3098 8.22575C36.3498 8.369 36.4355 8.4935 36.5525 8.57844C36.6695 8.66338 36.8109 8.70364 36.9528 8.69247C37.2251 8.69247 37.3609 8.60496 37.3609 8.44667C37.3609 8.01029 35.5003 8.24053 35.5003 6.86838C35.5003 6.00417 36.1959 5.56818 36.9844 5.56818C37.2801 5.55844 37.5729 5.632 37.8321 5.78119C38.0918 5.93039 38.3081 6.14975 38.4591 6.41644L37.4912 6.96367C37.4488 6.85959 37.3782 6.77087 37.2881 6.70864C37.1979 6.64638 37.0923 6.61335 36.9844 6.61363C36.7877 6.61363 36.6668 6.69141 36.6668 6.83571C36.6657 7.29076 38.5263 6.98934 38.5263 8.45561Z" fill="#001A49"/>
<path d="M42.6731 5.68097V9.64575H41.5385V9.27237C41.4076 9.43685 41.241 9.56645 41.0529 9.65057C40.8652 9.73466 40.6607 9.77087 40.4567 9.75621C39.6927 9.75621 39.0424 9.18525 39.0424 8.11452V5.68097H40.1769V7.94106C40.1673 8.03557 40.1777 8.13113 40.207 8.22105C40.2363 8.31097 40.2838 8.39315 40.3465 8.46184C40.4092 8.53052 40.4852 8.58404 40.5695 8.6187C40.654 8.65339 40.7446 8.66832 40.8351 8.66253C41.251 8.66253 41.54 8.40894 41.54 7.84577V5.68097H42.6731Z" fill="#001A49"/>
<path d="M49.1761 7.21099V9.64571H48.0416V7.31445C48.0416 6.91812 47.8598 6.66415 47.4969 6.66415C47.1185 6.66415 46.907 6.94185 46.907 7.40973V9.64571H45.7721V7.31445C45.7721 6.91812 45.5906 6.66415 45.2274 6.66415C44.8493 6.66415 44.6375 6.94185 44.6375 7.40973V9.64571H43.5029V5.68093H44.6393V6.04419C44.757 5.88243 44.9113 5.75416 45.0883 5.67105C45.2652 5.58797 45.4597 5.55272 45.653 5.56853C45.847 5.55858 46.0407 5.60153 46.2143 5.69322C46.3879 5.78489 46.536 5.92214 46.6439 6.09164C46.7697 5.91433 46.9363 5.7733 47.1281 5.68182C47.3199 5.59033 47.531 5.55135 47.741 5.56853C48.6092 5.57009 49.1761 6.21999 49.1761 7.21099Z" fill="#001A49"/>
<path d="M50.1375 5.65644C50.6027 5.65644 50.9797 5.26116 50.9797 4.77356C50.9797 4.28597 50.6027 3.89069 50.1375 3.89069C49.6722 3.89069 49.2953 4.28597 49.2953 4.77356C49.2953 5.26116 49.6722 5.65644 50.1375 5.65644Z" fill="#001A49"/>
<path d="M13.3842 3.85724H14.5191V9.64575H13.3842V3.85724ZM15.1617 7.66335C15.1605 7.24766 15.2769 6.84096 15.4963 6.49473C15.7156 6.14846 16.0281 5.87823 16.3941 5.71826C16.7601 5.55829 17.1631 5.51575 17.5522 5.59604C17.9412 5.67634 18.2988 5.87582 18.5796 6.16931C18.8604 6.46276 19.0519 6.83695 19.1297 7.24455C19.2075 7.65215 19.1682 8.07477 19.0167 8.45892C18.8653 8.84307 18.6085 9.17148 18.2789 9.40255C17.9493 9.63361 17.5617 9.75698 17.1652 9.75698C16.9018 9.7599 16.6405 9.70782 16.3966 9.60374C16.1527 9.49966 15.931 9.34565 15.7445 9.15075C15.5579 8.95582 15.4103 8.7239 15.3103 8.46852C15.2102 8.21315 15.1597 7.93942 15.1617 7.66335ZM18.0363 7.66335C18.0319 7.48402 17.9771 7.31009 17.8788 7.16326C17.7806 7.01644 17.6432 6.90322 17.4839 6.83781C17.3245 6.77243 17.1504 6.75769 16.9831 6.79553C16.8159 6.83333 16.663 6.92205 16.5435 7.05047C16.4241 7.17894 16.3435 7.34143 16.3117 7.51766C16.2799 7.69392 16.2984 7.87606 16.3649 8.04136C16.4313 8.20662 16.5428 8.34768 16.6854 8.4469C16.8279 8.54612 16.9952 8.59905 17.1663 8.59913C17.2834 8.60263 17.4001 8.58061 17.5087 8.53453C17.6174 8.48848 17.7157 8.41928 17.7976 8.33135C17.8795 8.24345 17.9431 8.13871 17.9844 8.02374C18.0258 7.90873 18.0439 7.78602 18.0378 7.66335H18.0363ZM23.6939 5.6798V9.44661C23.6939 10.7787 22.7029 11.3415 21.6971 11.3415C21.3431 11.3695 20.9885 11.2948 20.6723 11.1255C20.356 10.9563 20.0904 10.699 19.9044 10.382L20.8723 9.7951C20.9505 9.96055 21.075 10.0971 21.2291 10.1864C21.3833 10.2757 21.5597 10.3135 21.7349 10.2949C21.8468 10.3109 21.9606 10.3004 22.0681 10.2641C22.1755 10.2278 22.2738 10.1667 22.3557 10.0853C22.4376 10.0039 22.501 9.90423 22.5413 9.79366C22.5815 9.68312 22.5976 9.5645 22.5883 9.44661V9.08179C22.4554 9.25215 22.2862 9.38749 22.0945 9.47699C21.9026 9.56648 21.6935 9.60763 21.4838 9.59713C20.9846 9.58083 20.511 9.36151 20.1633 8.98557C19.8157 8.60963 19.6213 8.10662 19.6213 7.58304C19.6213 7.05942 19.8157 6.55641 20.1633 6.18047C20.511 5.80453 20.9846 5.5852 21.4838 5.56893C21.6935 5.55842 21.9026 5.59955 22.0945 5.68905C22.2862 5.77855 22.4554 5.9139 22.5883 6.08429V5.6798H23.6939ZM22.5898 7.58285C22.5973 7.39133 22.5499 7.20189 22.4539 7.03881C22.3578 6.87573 22.2174 6.74648 22.0507 6.66773C21.8841 6.58897 21.6987 6.56427 21.5185 6.59682C21.3384 6.62938 21.1716 6.71766 21.0397 6.85037C20.9077 6.98307 20.8167 7.15409 20.7783 7.34144C20.7398 7.52882 20.7557 7.72395 20.8238 7.90181C20.892 8.07963 21.0094 8.23201 21.1608 8.33936C21.3123 8.4467 21.4909 8.50411 21.6737 8.50423C21.7929 8.51298 21.9126 8.49552 22.025 8.45293C22.1374 8.41034 22.24 8.34356 22.3263 8.25687C22.4125 8.17021 22.4806 8.06555 22.526 7.94969C22.5713 7.83379 22.5931 7.70921 22.5898 7.58401V7.58285ZM24.3365 7.66063C24.3353 7.24494 24.4517 6.83823 24.6711 6.49201C24.8905 6.14574 25.2029 5.87551 25.5689 5.71554C25.9349 5.55556 26.3379 5.51303 26.727 5.59332C27.116 5.67361 27.4736 5.8731 27.7544 6.16659C28.0353 6.46004 28.2267 6.83423 28.3045 7.24183C28.3823 7.64943 28.343 8.07205 28.1916 8.45619C28.0401 8.84034 27.7833 9.16876 27.4537 9.39982C27.1241 9.63089 26.7365 9.75426 26.34 9.75426C26.0769 9.75717 25.8158 9.70517 25.5721 9.60125C25.3283 9.49737 25.1067 9.34358 24.9202 9.14896C24.7337 8.95434 24.5861 8.72277 24.4859 8.46767C24.3856 8.21261 24.3349 7.93919 24.3365 7.66335V7.66063ZM27.2111 7.66063C27.2067 7.48122 27.152 7.30713 27.0537 7.16015C26.9555 7.01321 26.818 6.89992 26.6586 6.83442C26.4992 6.76893 26.3249 6.75419 26.1576 6.79203C25.9902 6.82983 25.8372 6.91859 25.7177 7.04709C25.5982 7.17563 25.5175 7.33825 25.4858 7.51459C25.454 7.69093 25.4725 7.87322 25.539 8.03856C25.6056 8.20393 25.7172 8.34504 25.8598 8.44429C26.0025 8.54351 26.1699 8.5964 26.3411 8.5964C26.4579 8.59963 26.5741 8.57758 26.6824 8.53157C26.7907 8.48556 26.8887 8.41656 26.9704 8.32897C27.0521 8.24139 27.1157 8.13704 27.1571 8.02249C27.1985 7.90795 27.2169 7.78567 27.2111 7.66335V7.66063Z" fill="#001A49"/>
</svg>
