<svg width="82" height="23" viewBox="0 0 82 23" fill="none" xmlns="http://www.w3.org/2000/svg">
<g clip-path="url(#clip0_10_55356)">
<path d="M23.7166 15.6439H29.5163V13.9084H25.7779V7.37125H23.7166V15.6439Z" fill="#2F234F"/>
<path d="M32.9524 14.4869C32.1256 14.4869 31.6947 13.7695 31.6947 12.6935C31.6947 11.6175 32.1256 10.8886 32.9524 10.8886C33.7793 10.8886 34.2218 11.6175 34.2218 12.6935C34.2218 13.7695 33.7793 14.4869 32.9524 14.4869ZM32.9641 15.829C34.8857 15.829 36.1434 14.4753 36.1434 12.6935C36.1434 10.9117 34.8857 9.55798 32.9641 9.55798C31.0541 9.55798 29.7731 10.9117 29.7731 12.6935C29.7731 14.4753 31.0541 15.829 32.9641 15.829Z" fill="#2F234F"/>
<path d="M39.4695 17.6919C40.3546 17.6919 41.1349 17.4952 41.659 17.0324C42.1365 16.6043 42.4509 15.9564 42.4509 15.0654V9.72003H40.6341V10.3564H40.6108C40.2615 9.85887 39.7258 9.54648 38.9338 9.54648C37.4548 9.54648 36.4299 10.7729 36.4299 12.5084C36.4299 14.325 37.6761 15.32 39.0153 15.32C39.7374 15.32 40.1916 15.0307 40.541 14.6374H40.5876V15.2274C40.5876 15.9448 40.2498 16.3613 39.4462 16.3613C38.8174 16.3613 38.5029 16.0952 38.3981 15.7828H36.558C36.7444 17.0208 37.8275 17.6919 39.4695 17.6919ZM39.4579 13.92C38.7475 13.92 38.2816 13.3415 38.2816 12.4506C38.2816 11.5481 38.7475 10.9696 39.4579 10.9696C40.2498 10.9696 40.6691 11.6407 40.6691 12.439C40.6691 13.2721 40.2848 13.92 39.4579 13.92Z" fill="#2F234F"/>
<path d="M46.1864 14.4869C45.3596 14.4869 44.9287 13.7695 44.9287 12.6935C44.9287 11.6175 45.3596 10.8886 46.1864 10.8886C47.0133 10.8886 47.4558 11.6175 47.4558 12.6935C47.4558 13.7695 47.0133 14.4869 46.1864 14.4869ZM46.1981 15.829C48.1197 15.829 49.3776 14.4753 49.3776 12.6935C49.3776 10.9117 48.1197 9.55798 46.1981 9.55798C44.2881 9.55798 43.0071 10.9117 43.0071 12.6935C43.0071 14.4753 44.2881 15.829 46.1981 15.829Z" fill="#2F234F"/>
<path d="M49.9318 15.6439H51.8301V9.71999H49.9318V15.6439ZM49.9318 8.89851H51.8301V7.37125H49.9318V8.89851Z" fill="#2F234F"/>
<path d="M52.6536 17.5993H54.5519V15.0307H54.5752C54.9478 15.5283 55.4952 15.8291 56.2638 15.8291C57.8244 15.8291 58.8609 14.6026 58.8609 12.682C58.8609 10.9002 57.8943 9.54648 56.3104 9.54648C55.4952 9.54648 54.9129 9.90515 54.5053 10.4374H54.4703V9.72003H52.6536V17.5993ZM55.7747 14.3712C54.9595 14.3712 54.4936 13.7117 54.4936 12.7514C54.4936 11.7911 54.9129 11.0622 55.7398 11.0622C56.555 11.0622 56.9393 11.7332 56.9393 12.7514C56.9393 13.758 56.4967 14.3712 55.7747 14.3712Z" fill="#2F234F"/>
<path d="M61.9519 15.8291C63.5124 15.8291 64.6654 15.158 64.6654 13.8622C64.6654 12.3465 63.4309 12.0803 62.3828 11.9068C61.6258 11.768 60.9503 11.7101 60.9503 11.2936C60.9503 10.9233 61.3113 10.7498 61.7772 10.7498C62.3012 10.7498 62.6623 10.9118 62.7321 11.444H64.479C64.3859 10.2754 63.4775 9.54648 61.7888 9.54648C60.3796 9.54648 59.215 10.1944 59.215 11.444C59.215 12.8324 60.3214 13.1101 61.3579 13.2836C62.1498 13.4225 62.8719 13.4803 62.8719 14.0126C62.8719 14.3944 62.5109 14.6026 61.9402 14.6026C61.3113 14.6026 60.9154 14.3134 60.8455 13.7233H59.052C59.1102 15.0307 60.205 15.8291 61.9519 15.8291Z" fill="#2F234F"/>
<path d="M67.2435 15.8175C68.0704 15.8175 68.5944 15.4935 69.0253 14.915H69.0603V15.644H70.877V9.72003H68.9787V13.0291C68.9787 13.7349 68.5828 14.2208 67.9306 14.2208C67.325 14.2208 67.0339 13.8622 67.0339 13.2142V9.72003H65.1472V13.6076C65.1472 14.9266 65.8693 15.8175 67.2435 15.8175Z" fill="#2F234F"/>
<path d="M71.703 15.644H73.6013V12.3233C73.6013 11.6175 73.9507 11.12 74.5446 11.12C75.1153 11.12 75.3831 11.4903 75.3831 12.1266V15.644H77.2814V12.3233C77.2814 11.6175 77.6192 11.12 78.2248 11.12C78.7954 11.12 79.0633 11.4903 79.0633 12.1266V15.644H80.9616V11.7911C80.9616 10.4605 80.2861 9.54648 78.9352 9.54648C78.1665 9.54648 77.526 9.87044 77.0602 10.5878H77.0369C76.7341 9.95143 76.1401 9.54648 75.3599 9.54648C74.498 9.54648 73.9274 9.95143 73.5547 10.5647H73.5198V9.72003H71.703V15.644Z" fill="#2F234F"/>
<path fill-rule="evenodd" clip-rule="evenodd" d="M4.31794 3.63885C3.62371 4.12112 2.99594 4.69131 2.45098 5.33318C4.67794 5.12777 7.50721 5.46317 10.792 7.09487C14.2996 8.83724 17.1242 8.89615 19.0899 8.51945C18.9116 7.98293 18.687 7.46728 18.421 6.97709C16.1708 7.21288 13.286 6.90078 9.92395 5.23077C7.78904 4.17027 5.90714 3.73341 4.31794 3.63885ZM17.1065 5.11828C15.3295 3.14574 12.747 1.90436 9.8727 1.90436C9.02861 1.90436 8.20961 2.01143 7.42884 2.21265C8.4863 2.4993 9.60965 2.91867 10.792 3.50599C13.2534 4.7287 15.3785 5.12239 17.1065 5.11828ZM19.5102 10.4027C17.1354 10.8686 13.856 10.7729 9.92395 8.81964C6.24789 6.99358 3.32206 7.01658 1.34877 7.45224C1.24692 7.47471 1.14746 7.49833 1.05041 7.52292C0.792057 8.08113 0.585832 8.66812 0.437864 9.27768C0.595902 9.23574 0.75921 9.19587 0.927704 9.15865C3.32164 8.63013 6.70407 8.65308 10.792 10.6837C14.4681 12.5098 17.3939 12.4868 19.3672 12.0511C19.4348 12.0362 19.5014 12.0208 19.5669 12.0049C19.5741 11.8529 19.5777 11.6999 19.5777 11.5462C19.5777 11.1593 19.5548 10.7777 19.5102 10.4027ZM19.2501 14.0397C16.8983 14.4481 13.7144 14.2914 9.92395 12.4085C6.24789 10.5825 3.32206 10.6055 1.34877 11.0411C0.910764 11.1378 0.516735 11.2555 0.169146 11.3799C0.168199 11.4352 0.167725 11.4906 0.167725 11.5462C0.167725 16.8712 4.51279 21.188 9.8727 21.188C14.3647 21.188 18.1439 18.156 19.2501 14.0397Z" fill="#7F57F1"/>
</g>
<defs>
<clipPath id="clip0_10_55356">
<rect width="81.0367" height="21.6" fill="white" transform="translate(0.118408 0.600189)"/>
</clipPath>
</defs>
</svg>
