<svg width="52" height="15" viewBox="0 0 52 15" fill="none" xmlns="http://www.w3.org/2000/svg">
<g clip-path="url(#clip0_10_25701)">
<path d="M0.294312 10.8209L0.294313 4.2301L3.4379 6.06089V9.00844L5.95279 10.4914L8.46764 9.00844V6.06089L11.6113 4.2301V10.8209L5.95279 14.1163L0.294312 10.8209Z" fill="#192657"/>
<path fill-rule="evenodd" clip-rule="evenodd" d="M1.86611 5.14551L0.294312 4.23011L5.95279 0.934692L11.6113 4.23011L10.0395 5.14551V9.99707L5.95279 12.4686L1.86611 9.99707L1.86611 5.14551ZM9.86919 5.24468L8.46764 6.06089V6.04258L5.95279 4.55964L3.4379 6.04258V6.06089L2.03639 5.24468V9.89569L5.95279 12.2643L9.86919 9.89569V5.24468Z" fill="url(#paint0_linear_10_25701)"/>
<path d="M14.6239 10.3V4.76373H15.6198V9.35093H18.0341V10.3H14.6239Z" fill="#192657"/>
<path d="M20.1843 10.4108C19.8121 10.4108 19.4776 10.3317 19.1808 10.1735C18.8841 10.0153 18.6502 9.78597 18.4792 9.48544C18.3082 9.18491 18.2227 8.82372 18.2227 8.40192V8.27535C18.2227 7.85354 18.3082 7.49236 18.4792 7.19183C18.6502 6.89129 18.8841 6.66194 19.1808 6.50376C19.4776 6.34555 19.8121 6.26648 20.1843 6.26648C20.5565 6.26648 20.8909 6.34555 21.1877 6.50376C21.4845 6.66194 21.7183 6.89129 21.8893 7.19183C22.0603 7.49236 22.1459 7.85354 22.1459 8.27535V8.40192C22.1459 8.82372 22.0603 9.18491 21.8893 9.48544C21.7183 9.78597 21.4845 10.0153 21.1877 10.1735C20.8909 10.3317 20.5565 10.4108 20.1843 10.4108ZM20.1843 9.52498C20.476 9.52498 20.7174 9.42745 20.9085 9.23234C21.0997 9.03199 21.1952 8.74725 21.1952 8.37817V8.2991C21.1952 7.93002 21.0997 7.6479 20.9085 7.45282C20.7225 7.25248 20.481 7.15229 20.1843 7.15229C19.8925 7.15229 19.6511 7.25248 19.46 7.45282C19.2688 7.6479 19.1733 7.93002 19.1733 8.2991V8.37817C19.1733 8.74725 19.2688 9.03199 19.46 9.23234C19.6511 9.42745 19.8925 9.52498 20.1843 9.52498Z" fill="#192657"/>
<path d="M22.5028 8.35445V8.22792C22.5028 7.81664 22.5807 7.46601 22.7367 7.176C22.8926 6.88073 23.0988 6.65664 23.3553 6.50376C23.6169 6.34555 23.9011 6.26648 24.2079 6.26648C24.5499 6.26648 24.8089 6.32976 24.985 6.4563C25.161 6.58283 25.2893 6.71466 25.3697 6.85176H25.5056V6.37719H26.4411V10.9961C26.4411 11.265 26.3656 11.4785 26.2147 11.6367C26.0639 11.8001 25.8627 11.8819 25.6112 11.8819H23.1064V11.0119H25.2792C25.42 11.0119 25.4905 10.9328 25.4905 10.7746V9.75433H25.3546C25.3044 9.8387 25.2339 9.9257 25.1434 10.0153C25.0529 10.0997 24.9322 10.1709 24.7813 10.2289C24.6304 10.2869 24.4392 10.3159 24.2079 10.3159C23.9011 10.3159 23.6169 10.2394 23.3553 10.0865C23.0988 9.92833 22.8926 9.70424 22.7367 9.41426C22.5807 9.11899 22.5028 8.76573 22.5028 8.35445ZM24.4795 9.4459C24.7712 9.4459 25.0152 9.34835 25.2113 9.15327C25.4075 8.95818 25.5056 8.684 25.5056 8.33074V8.25163C25.5056 7.89308 25.4075 7.61893 25.2113 7.42911C25.0202 7.23403 24.7763 7.13647 24.4795 7.13647C24.1878 7.13647 23.9438 7.23403 23.7477 7.42911C23.5515 7.61893 23.4534 7.89308 23.4534 8.25163V8.33074C23.4534 8.684 23.5515 8.95818 23.7477 9.15327C23.9438 9.34835 24.1878 9.4459 24.4795 9.4459Z" fill="#192657"/>
<path d="M28.9361 10.4108C28.5639 10.4108 28.2294 10.3317 27.9326 10.1735C27.6359 10.0153 27.402 9.78597 27.231 9.48544C27.06 9.18491 26.9745 8.82372 26.9745 8.40192V8.27535C26.9745 7.85354 27.06 7.49236 27.231 7.19183C27.402 6.89129 27.6359 6.66194 27.9326 6.50376C28.2294 6.34555 28.5639 6.26648 28.9361 6.26648C29.3083 6.26648 29.6427 6.34555 29.9395 6.50376C30.2363 6.66194 30.4701 6.89129 30.6411 7.19183C30.8122 7.49236 30.8977 7.85354 30.8977 8.27535V8.40192C30.8977 8.82372 30.8122 9.18491 30.6411 9.48544C30.4701 9.78597 30.2363 10.0153 29.9395 10.1735C29.6427 10.3317 29.3083 10.4108 28.9361 10.4108ZM28.9361 9.52498C29.2278 9.52498 29.4692 9.42745 29.6603 9.23234C29.8515 9.03199 29.9471 8.74725 29.9471 8.37817V8.2991C29.9471 7.93002 29.8515 7.6479 29.6603 7.45282C29.4743 7.25248 29.2328 7.15229 28.9361 7.15229C28.6443 7.15229 28.4029 7.25248 28.2118 7.45282C28.0207 7.6479 27.9251 7.93002 27.9251 8.2991V8.37817C27.9251 8.74725 28.0207 9.03199 28.2118 9.23234C28.4029 9.42745 28.6443 9.52498 28.9361 9.52498Z" fill="#192657"/>
<path d="M31.4357 10.3001V6.37717H32.3863V10.3001H31.4357ZM31.911 5.91846C31.74 5.91846 31.5941 5.86048 31.4734 5.74447C31.3578 5.62846 31.2999 5.47554 31.2999 5.28576C31.2999 5.09594 31.3578 4.94302 31.4734 4.82701C31.5941 4.71104 31.74 4.65302 31.911 4.65302C32.0871 4.65302 32.2329 4.71104 32.3486 4.82701C32.4643 4.94302 32.5221 5.09594 32.5221 5.28576C32.5221 5.47554 32.4643 5.62846 32.3486 5.74447C32.2329 5.86048 32.0871 5.91846 31.911 5.91846Z" fill="#192657"/>
<path d="M33.1002 11.8819V6.37719H34.0358V6.85176H34.1717C34.257 6.69884 34.3902 6.56438 34.5716 6.44837C34.7526 6.3271 35.0116 6.26648 35.3486 6.26648C35.6504 6.26648 35.9295 6.34555 36.1859 6.50376C36.4425 6.65664 36.6487 6.88337 36.8046 7.18393C36.9606 7.48446 37.0385 7.84828 37.0385 8.27535V8.40192C37.0385 8.82898 36.9606 9.1928 36.8046 9.49333C36.6487 9.7939 36.4425 10.0233 36.1859 10.1814C35.9295 10.3343 35.6504 10.4108 35.3486 10.4108C35.122 10.4108 34.931 10.3818 34.775 10.3238C34.6241 10.2711 34.501 10.2025 34.4056 10.1181C34.3149 10.0285 34.2419 9.93889 34.1867 9.84926H34.0509V11.8819H33.1002ZM35.0618 9.5408C35.3586 9.5408 35.6026 9.44324 35.7937 9.24816C35.9898 9.04781 36.0878 8.75781 36.0878 8.37817V8.2991C36.0878 7.91946 35.9898 7.63208 35.7937 7.437C35.5976 7.23666 35.3536 7.13647 35.0618 7.13647C34.77 7.13647 34.5261 7.23666 34.33 7.437C34.1339 7.63208 34.0358 7.91946 34.0358 8.2991V8.37817C34.0358 8.75781 34.1339 9.04781 34.33 9.24816C34.5261 9.44324 34.77 9.5408 35.0618 9.5408Z" fill="#192657"/>
<path d="M39.1259 10.4108C38.638 10.4108 38.2381 10.3001 37.9262 10.0786C37.6147 9.85715 37.4259 9.5408 37.3604 9.12952L38.2358 8.89227C38.2709 9.07679 38.3288 9.22181 38.4091 9.32726C38.4948 9.43271 38.5979 9.50915 38.7187 9.55662C38.8442 9.59878 38.98 9.6199 39.1259 9.6199C39.3471 9.6199 39.5108 9.58033 39.6165 9.50126C39.7219 9.41689 39.7748 9.31407 39.7748 9.1928C39.7748 9.07153 39.7246 8.97927 39.6239 8.91598C39.5235 8.84744 39.3625 8.79208 39.141 8.74991L38.9298 8.71034C38.6681 8.65762 38.4292 8.58644 38.213 8.49681C37.9968 8.40192 37.8232 8.27272 37.6923 8.10928C37.5618 7.9458 37.4962 7.7349 37.4962 7.47654C37.4962 7.08637 37.6321 6.78847 37.9038 6.58283C38.1752 6.37193 38.5326 6.26648 38.975 6.26648C39.3926 6.26648 39.7396 6.36404 40.0161 6.55912C40.2928 6.7542 40.4739 7.00993 40.5595 7.32629L39.6767 7.611C39.6366 7.41066 39.5536 7.26827 39.4278 7.18393C39.307 7.09956 39.156 7.05736 38.975 7.05736C38.794 7.05736 38.6557 7.09164 38.56 7.16018C38.4647 7.22347 38.4168 7.3131 38.4168 7.42911C38.4168 7.55564 38.467 7.65053 38.5677 7.71382C38.6681 7.77181 38.804 7.81664 38.975 7.84828L39.1862 7.88782C39.4679 7.94054 39.7219 8.01172 39.9485 8.10135C40.1797 8.18572 40.3607 8.30962 40.4916 8.4731C40.6274 8.63127 40.6954 8.84744 40.6954 9.12162C40.6954 9.5329 40.5518 9.85189 40.265 10.0786C39.9836 10.3001 39.6038 10.4108 39.1259 10.4108Z" fill="#192657"/>
<path d="M42.6146 10.3633C42.3231 10.3633 42.0665 10.2948 41.8453 10.1577C41.6291 10.0153 41.4604 9.82025 41.3396 9.57244C41.2191 9.32464 41.1586 9.03989 41.1586 8.71828V6.3772H42.1093V8.63917C42.1093 8.93444 42.1772 9.1559 42.3131 9.30352C42.4536 9.45117 42.6524 9.52498 42.9091 9.52498C43.2005 9.52498 43.4271 9.42479 43.5881 9.22445C43.749 9.01881 43.8293 8.7341 43.8293 8.37028V6.3772H44.7801V10.3001H43.8444V9.78598H43.7089C43.6483 9.91781 43.5352 10.047 43.3692 10.1735C43.2032 10.3001 42.9516 10.3633 42.6146 10.3633Z" fill="#192657"/>
<path d="M45.4984 10.3001V6.37721H46.4337V6.80432H46.5696C46.6348 6.67248 46.7433 6.55914 46.8939 6.46421C47.0448 6.36406 47.2436 6.31396 47.4902 6.31396C47.7566 6.31396 47.9704 6.36932 48.1314 6.48003C48.2923 6.58549 48.4155 6.72521 48.5011 6.89921H48.6367C48.7223 6.73051 48.8431 6.59078 48.9991 6.48003C49.155 6.36932 49.3762 6.31396 49.663 6.31396C49.8943 6.31396 50.1031 6.36669 50.2891 6.47214C50.4802 6.5723 50.6311 6.72784 50.7419 6.93878C50.8573 7.14438 50.9152 7.40538 50.9152 7.72177V10.3001H49.9645V7.79295C49.9645 7.57675 49.912 7.41594 49.8062 7.31049C49.7005 7.19978 49.5522 7.14438 49.3612 7.14438C49.145 7.14438 48.9763 7.21823 48.8555 7.36585C48.7401 7.5082 48.6822 7.71384 48.6822 7.98277V10.3001H47.7315V7.79295C47.7315 7.57675 47.6786 7.41594 47.5732 7.31049C47.4674 7.19978 47.3192 7.14438 47.1278 7.14438C46.9116 7.14438 46.7433 7.21823 46.6225 7.36585C46.5067 7.5082 46.4488 7.71384 46.4488 7.98277V10.3001H45.4984Z" fill="#192657"/>
</g>
<defs>
<linearGradient id="paint0_linear_10_25701" x1="1.86611" y1="3.49779" x2="10.3538" y2="3.49779" gradientUnits="userSpaceOnUse">
<stop stop-color="#64C2DB"/>
<stop offset="0.307292" stop-color="#7476ED"/>
<stop offset="0.604167" stop-color="#C994DF"/>
<stop offset="1" stop-color="#E56F8C"/>
</linearGradient>
<clipPath id="clip0_10_25701">
<rect width="51.2" height="14.4" fill="white" transform="translate(0.00012207 0.399963)"/>
</clipPath>
</defs>
</svg>
