<svg width="82" height="23" viewBox="0 0 82 23" fill="none" xmlns="http://www.w3.org/2000/svg">
<g clip-path="url(#clip0_10_55314)">
<path d="M6.14346 15.995C4.58224 17.5461 1.93812 17.5399 1.19969 15.4727C1.05512 15.0679 0.939525 14.6518 0.854507 14.2272C0.507381 12.4934 0.685539 10.6963 1.36645 9.0631C2.04737 7.42996 3.20045 6.03407 4.67989 5.05197C6.15936 4.06988 7.89872 3.54568 9.67802 3.54568C11.4573 3.54568 13.1967 4.06988 14.6761 5.05197C16.1556 6.03407 17.3087 7.42996 17.9896 9.06315C18.6705 10.6963 18.8486 12.4934 18.5015 14.2272C18.4165 14.6518 18.3009 15.0679 18.1563 15.4727C17.4179 17.5399 14.7738 17.5461 13.2125 15.995L10.8026 13.6007C10.5723 13.3719 10.5961 12.9947 10.6596 12.6774C10.6982 12.4846 10.6784 12.2847 10.6026 12.103C10.5269 11.9213 10.3986 11.766 10.234 11.6567C10.0695 11.5475 9.87596 11.4892 9.67802 11.4892C9.48009 11.4892 9.28659 11.5475 9.12201 11.6567C8.95737 11.766 8.82913 11.9213 8.75337 12.103C8.67761 12.2847 8.6578 12.4846 8.69643 12.6774C8.75996 12.9947 8.78369 13.3719 8.55344 13.6007L6.14346 15.995Z" fill="url(#paint0_linear_10_55314)"/>
<path d="M25.9937 13.8491H28.4118V15.2649H24.1476V7.73566H25.9937V13.8491Z" fill="#3A3B7B"/>
<path d="M31.7106 15.3507C31.1204 15.3507 30.5878 15.2256 30.1128 14.9753C29.645 14.7251 29.2744 14.3675 29.0009 13.9028C28.7346 13.438 28.6014 12.8946 28.6014 12.2725C28.6014 11.6576 28.7382 11.1177 29.0116 10.653C29.2852 10.1811 29.6594 9.81997 30.1344 9.56972C30.6094 9.31946 31.142 9.19434 31.7322 9.19434C32.3223 9.19434 32.8549 9.31946 33.3299 9.56972C33.8049 9.81997 34.1792 10.1811 34.4527 10.653C34.7261 11.1177 34.8629 11.6576 34.8629 12.2725C34.8629 12.8874 34.7225 13.4308 34.4419 13.9028C34.1684 14.3675 33.7906 14.7251 33.3083 14.9753C32.8333 15.2256 32.3007 15.3507 31.7106 15.3507ZM31.7106 13.7633C32.0632 13.7633 32.3619 13.6346 32.6066 13.3772C32.8585 13.1198 32.9845 12.7516 32.9845 12.2725C32.9845 11.7934 32.8621 11.4252 32.6174 11.1678C32.3799 10.9104 32.0848 10.7817 31.7322 10.7817C31.3723 10.7817 31.0736 10.9104 30.8361 11.1678C30.5986 11.418 30.4799 11.7863 30.4799 12.2725C30.4799 12.7516 30.595 13.1198 30.8253 13.3772C31.0629 13.6346 31.3579 13.7633 31.7106 13.7633Z" fill="#3A3B7B"/>
<path d="M37.8071 9.19434C38.2317 9.19434 38.6024 9.28014 38.9191 9.45176C39.2429 9.62332 39.4912 9.84859 39.664 10.1274V9.28014H41.51V15.2541C41.51 15.8047 41.3985 16.3017 41.1753 16.7449C40.9594 17.1954 40.6247 17.5529 40.1714 17.8175C39.7251 18.0821 39.1673 18.2144 38.498 18.2144C37.6056 18.2144 36.8823 18.0034 36.3281 17.5816C35.7739 17.1668 35.4572 16.602 35.3781 15.8869H37.2025C37.2601 16.1157 37.3969 16.2945 37.6128 16.4232C37.8287 16.559 38.095 16.627 38.4117 16.627C38.7931 16.627 39.0953 16.5161 39.3185 16.2945C39.5488 16.08 39.664 15.7332 39.664 15.2541V14.4069C39.484 14.6857 39.2357 14.9145 38.9191 15.0933C38.6024 15.2649 38.2317 15.3507 37.8071 15.3507C37.3105 15.3507 36.8607 15.2256 36.4576 14.9753C36.0546 14.7179 35.7343 14.3568 35.4968 13.892C35.2665 13.4201 35.1514 12.8767 35.1514 12.2618C35.1514 11.6469 35.2665 11.107 35.4968 10.6423C35.7343 10.1775 36.0546 9.81997 36.4576 9.56972C36.8607 9.31946 37.3105 9.19434 37.8071 9.19434ZM39.664 12.2725C39.664 11.8149 39.5344 11.4538 39.2753 11.1892C39.0234 10.9247 38.7139 10.7924 38.3469 10.7924C37.9798 10.7924 37.6667 10.9247 37.4076 11.1892C37.1557 11.4467 37.0298 11.8042 37.0298 12.2618C37.0298 12.7194 37.1557 13.0841 37.4076 13.3558C37.6667 13.6203 37.9798 13.7526 38.3469 13.7526C38.7139 13.7526 39.0234 13.6203 39.2753 13.3558C39.5344 13.0912 39.664 12.7301 39.664 12.2725Z" fill="#3A3B7B"/>
<path d="M45.2638 15.3507C44.6736 15.3507 44.1411 15.2256 43.6661 14.9753C43.1983 14.7251 42.8276 14.3675 42.5541 13.9028C42.2878 13.438 42.1547 12.8946 42.1547 12.2725C42.1547 11.6576 42.2914 11.1177 42.5649 10.653C42.8384 10.1811 43.2126 9.81997 43.6876 9.56972C44.1626 9.31946 44.6952 9.19434 45.2854 9.19434C45.8756 9.19434 46.4081 9.31946 46.8831 9.56972C47.3582 9.81997 47.7324 10.1811 48.0059 10.653C48.2794 11.1177 48.4161 11.6576 48.4161 12.2725C48.4161 12.8874 48.2758 13.4308 47.9951 13.9028C47.7216 14.3675 47.3438 14.7251 46.8615 14.9753C46.3866 15.2256 45.854 15.3507 45.2638 15.3507ZM45.2638 13.7633C45.6164 13.7633 45.9151 13.6346 46.1599 13.3772C46.4118 13.1198 46.5377 12.7516 46.5377 12.2725C46.5377 11.7934 46.4153 11.4252 46.1706 11.1678C45.9331 10.9104 45.638 10.7817 45.2854 10.7817C44.9255 10.7817 44.6269 10.9104 44.3893 11.1678C44.1519 11.418 44.0331 11.7863 44.0331 12.2725C44.0331 12.7516 44.1483 13.1198 44.3786 13.3772C44.6161 13.6346 44.9112 13.7633 45.2638 13.7633Z" fill="#3A3B7B"/>
<path d="M50 8.65808C49.6761 8.65808 49.4098 8.56513 49.2011 8.37922C48.9996 8.18617 48.8988 7.95021 48.8988 7.67135C48.8988 7.38534 48.9996 7.14938 49.2011 6.96347C49.4098 6.77042 49.6761 6.67389 50 6.67389C50.3166 6.67389 50.5757 6.77042 50.7772 6.96347C50.9859 7.14938 51.0903 7.38534 51.0903 7.67135C51.0903 7.95021 50.9859 8.18617 50.7772 8.37922C50.5757 8.56513 50.3166 8.65808 50 8.65808ZM50.9176 9.28016V15.2649H49.0715V9.28016H50.9176Z" fill="#3A3B7B"/>
<path d="M53.7776 10.1274C53.9574 9.84859 54.2057 9.62332 54.5226 9.45176C54.8394 9.28014 55.2101 9.19434 55.6346 9.19434C56.1313 9.19434 56.5809 9.31946 56.984 9.56972C57.3871 9.81997 57.7039 10.1775 57.934 10.6423C58.1713 11.107 58.2905 11.6469 58.2905 12.2618C58.2905 12.8767 58.1713 13.4201 57.934 13.892C57.7039 14.3568 57.3871 14.7179 56.984 14.9753C56.5809 15.2256 56.1313 15.3507 55.6346 15.3507C55.2169 15.3507 54.8467 15.2649 54.5226 15.0933C54.2057 14.9216 53.9574 14.7 53.7776 14.4283V18.1178H51.9316V9.28014H53.7776V10.1274ZM56.412 12.2618C56.412 11.8042 56.2824 11.4467 56.0231 11.1892C55.7711 10.9247 55.4584 10.7924 55.0841 10.7924C54.7171 10.7924 54.4039 10.9247 54.1446 11.1892C53.8931 11.4538 53.7671 11.8149 53.7671 12.2725C53.7671 12.7301 53.8931 13.0912 54.1446 13.3558C54.4039 13.6203 54.7171 13.7526 55.0841 13.7526C55.4511 13.7526 55.7643 13.6203 56.0231 13.3558C56.2824 13.0841 56.412 12.7194 56.412 12.2618Z" fill="#3A3B7B"/>
<path d="M61.3856 15.3507C60.8601 15.3507 60.3922 15.2613 59.9818 15.0826C59.5719 14.9038 59.2478 14.6607 59.0104 14.3532C58.773 14.0386 58.6397 13.6882 58.611 13.3021H60.4356C60.457 13.5095 60.5543 13.6775 60.7268 13.8062C60.8999 13.9349 61.1121 13.9993 61.3641 13.9993C61.5942 13.9993 61.7703 13.9564 61.8927 13.8706C62.0223 13.7776 62.0872 13.6596 62.0872 13.5166C62.0872 13.345 61.9972 13.2199 61.8174 13.1413C61.6376 13.0554 61.3458 12.9625 60.9427 12.8624C60.5109 12.7623 60.1512 12.6586 59.8631 12.5514C59.5756 12.437 59.3272 12.2618 59.1186 12.0258C58.9095 11.7827 58.8055 11.4574 58.8055 11.0498C58.8055 10.7066 58.899 10.3956 59.0862 10.1167C59.2802 9.83072 59.5609 9.60545 59.9279 9.44101C60.3023 9.27656 60.7451 9.19434 61.2559 9.19434C62.0114 9.19434 62.6053 9.38023 63.0371 9.75203C63.4763 10.1239 63.7283 10.6172 63.7931 11.2322H62.0872C62.0584 11.0248 61.9648 10.8604 61.8064 10.7388C61.6553 10.6172 61.454 10.5564 61.202 10.5564C60.9861 10.5564 60.8204 10.5993 60.7054 10.6852C60.5903 10.7638 60.5328 10.8746 60.5328 11.0176C60.5328 11.1892 60.6228 11.318 60.8026 11.4038C60.9898 11.4896 61.2773 11.5754 61.6663 11.6611C62.1123 11.7756 62.4756 11.89 62.7564 12.0044C63.0371 12.1116 63.2818 12.2904 63.4904 12.5407C63.7063 12.7837 63.8182 13.1126 63.8255 13.5274C63.8255 13.8777 63.7246 14.1923 63.5228 14.4712C63.3289 14.7429 63.0445 14.9574 62.6701 15.1147C62.3031 15.272 61.8749 15.3507 61.3856 15.3507Z" fill="#3A3B7B"/>
<path d="M70.5794 9.28012V15.2649H68.7333V14.4497C68.5461 14.7143 68.2905 14.9288 67.9669 15.0932C67.65 15.2506 67.2976 15.3292 66.9087 15.3292C66.4481 15.3292 66.0413 15.2291 65.6889 15.0289C65.336 14.8215 65.0626 14.5248 64.8686 14.1387C64.6742 13.7526 64.5769 13.2986 64.5769 12.7766V9.28012H66.412V12.5299C66.412 12.9303 66.5166 13.2413 66.7252 13.463C66.9338 13.6846 67.2145 13.7955 67.5674 13.7955C67.9271 13.7955 68.2115 13.6846 68.4201 13.463C68.6287 13.2413 68.7333 12.9303 68.7333 12.5299V9.28012H70.5794Z" fill="#3A3B7B"/>
<path d="M79.2679 9.21576C80.016 9.21576 80.61 9.44098 81.0491 9.89146C81.4951 10.3419 81.7183 10.9675 81.7183 11.7684V15.2648H79.8832V12.0151C79.8832 11.629 79.7787 11.3322 79.5701 11.1249C79.3683 10.9103 79.088 10.8031 78.7278 10.8031C78.3681 10.8031 78.0837 10.9103 77.8751 11.1249C77.6738 11.3322 77.5729 11.629 77.5729 12.0151V15.2648H75.7373V12.0151C75.7373 11.629 75.6333 11.3322 75.4247 11.1249C75.2229 10.9103 74.9421 10.8031 74.5824 10.8031C74.2227 10.8031 73.9383 10.9103 73.7297 11.1249C73.5279 11.3322 73.4275 11.629 73.4275 12.0151V15.2648H71.5814V9.28011H73.4275V10.0309C73.6147 9.78062 73.8593 9.58397 74.1615 9.44098C74.4637 9.29081 74.8056 9.21576 75.1868 9.21576C75.6406 9.21576 76.0437 9.31227 76.3961 9.50533C76.7558 9.6984 77.0365 9.97369 77.2383 10.3312C77.4469 10.0023 77.7313 9.73413 78.091 9.52678C78.4507 9.31943 78.8434 9.21576 79.2679 9.21576Z" fill="#3A3B7B"/>
</g>
<defs>
<linearGradient id="paint0_linear_10_55314" x1="17.8555" y1="8.01458" x2="1.88693" y2="8.01458" gradientUnits="userSpaceOnUse">
<stop stop-color="#64C2DB"/>
<stop offset="0.510417" stop-color="#7476ED"/>
<stop offset="1" stop-color="#E56F8C"/>
</linearGradient>
<clipPath id="clip0_10_55314">
<rect width="81.0367" height="21.6" fill="white" transform="translate(0.681641 0.600189)"/>
</clipPath>
</defs>
</svg>
