<svg width="82" height="23" viewBox="0 0 82 23" fill="none" xmlns="http://www.w3.org/2000/svg">
<g clip-path="url(#clip0_10_55343)">
<path d="M13.361 14.8366H17.482L7.2734 4.5275H3.15234L13.361 14.8366Z" fill="#7476ED"/>
<path d="M9.08179 4.5275L19.4584 14.3457V4.5275H16.6503V7.62728L13.3742 4.5275L9.08179 4.5275Z" fill="#E56F8C"/>
<path d="M1.17578 5.0184V14.8366H3.84313V11.7449L6.95501 14.8366H11.0583L1.17578 5.0184Z" fill="#64C2DB"/>
<path d="M25.8309 13.3596H28.3528V14.8366H23.9056V6.98203H25.8309V13.3596Z" fill="#3A3B7B"/>
<path d="M31.5425 14.8366C30.937 14.8366 30.3906 14.7069 29.9033 14.4474C29.4234 14.188 29.0431 13.8174 28.7625 13.3356C28.4894 12.8538 28.3528 12.2905 28.3528 11.6456C28.3528 11.0082 28.493 10.4486 28.7736 9.96682C29.0542 9.47759 29.4381 9.1033 29.9254 8.84387C30.4128 8.58445 30.9591 8.45474 31.5646 8.45474C32.1701 8.45474 32.7164 8.58445 33.2038 8.84387C33.6911 9.1033 34.075 9.47759 34.3556 9.96682C34.6362 10.4486 34.7764 11.0082 34.7764 11.6456C34.7764 12.2831 34.6325 12.8464 34.3445 13.3356C34.0639 13.8174 33.6763 14.188 33.1816 14.4474C32.6943 14.7069 32.1479 14.8366 31.5425 14.8366ZM31.5425 13.1911C31.9043 13.1911 32.2107 13.0576 32.4617 12.7908C32.7201 12.524 32.8493 12.1423 32.8493 11.6456C32.8493 11.149 32.7238 10.7673 32.4728 10.5005C32.2291 10.2337 31.9264 10.1002 31.5646 10.1002C31.1954 10.1002 30.889 10.2337 30.6454 10.5005C30.4017 10.7599 30.2799 11.1416 30.2799 11.6456C30.2799 12.1423 30.398 12.524 30.6343 12.7908C30.878 13.0576 31.1807 13.1911 31.5425 13.1911Z" fill="#3A3B7B"/>
<path d="M37.4592 8.45474C37.8882 8.45474 38.2627 8.54347 38.5826 8.72092C38.9098 8.89837 39.1606 9.13129 39.3351 9.41963V8.54347H41.2V14.721C41.2 15.2903 41.0873 15.8042 40.8619 16.2626C40.6438 16.7284 40.3057 17.0981 39.8477 17.3716C39.3969 17.6452 38.8334 17.782 38.1572 17.782C37.2557 17.782 36.525 17.5639 35.9651 17.1276C35.4053 16.6988 35.0854 16.1147 35.0054 15.3753H36.8485C36.9067 15.6119 37.0448 15.7967 37.2629 15.9298C37.4811 16.0703 37.7501 16.1406 38.07 16.1406C38.4553 16.1406 38.7607 16.026 38.9861 15.7967C39.2187 15.575 39.3351 15.2164 39.3351 14.721V13.8448C39.1533 14.1331 38.9025 14.3698 38.5826 14.5546C38.2627 14.732 37.8882 14.8208 37.4592 14.8208C36.9576 14.8208 36.5031 14.6914 36.096 14.4326C35.6888 14.1664 35.3653 13.7931 35.1254 13.3125C34.8927 12.8245 34.7764 12.2626 34.7764 11.6267C34.7764 10.9908 34.8927 10.4326 35.1254 9.95198C35.3653 9.47141 35.6888 9.1017 36.096 8.84291C36.5031 8.58413 36.9576 8.45474 37.4592 8.45474ZM39.3351 11.6377C39.3351 11.1646 39.2042 10.7912 38.9425 10.5176C38.688 10.244 38.3753 10.1072 38.0046 10.1072C37.6338 10.1072 37.3175 10.244 37.0558 10.5176C36.8012 10.7838 36.674 11.1535 36.674 11.6267C36.674 12.0999 36.8012 12.477 37.0558 12.7579C37.3175 13.0315 37.6338 13.1683 38.0046 13.1683C38.3753 13.1683 38.688 13.0315 38.9425 12.7579C39.2042 12.4844 39.3351 12.111 39.3351 11.6377Z" fill="#3A3B7B"/>
<path d="M45.1327 14.8366C44.5738 14.8366 44.0695 14.7069 43.6196 14.4474C43.1766 14.188 42.8256 13.8174 42.5666 13.3356C42.3144 12.8538 42.1884 12.2905 42.1884 11.6456C42.1884 11.0082 42.3179 10.4486 42.5768 9.96682C42.8358 9.47759 43.1902 9.1033 43.6401 8.84387C44.0899 8.58445 44.5943 8.45474 45.1531 8.45474C45.712 8.45474 46.2163 8.58445 46.6662 8.84387C47.116 9.1033 47.4704 9.47759 47.7294 9.96682C47.9884 10.4486 48.1179 11.0082 48.1179 11.6456C48.1179 12.2831 47.985 12.8464 47.7192 13.3356C47.4602 13.8174 47.1024 14.188 46.6457 14.4474C46.1959 14.7069 45.6915 14.8366 45.1327 14.8366ZM45.1327 13.1911C45.4666 13.1911 45.7495 13.0576 45.9812 12.7908C46.2198 12.524 46.339 12.1423 46.339 11.6456C46.339 11.149 46.2232 10.7673 45.9914 10.5005C45.7665 10.2337 45.4871 10.1002 45.1531 10.1002C44.8124 10.1002 44.5295 10.2337 44.3046 10.5005C44.0796 10.7599 43.9672 11.1416 43.9672 11.6456C43.9672 12.1423 44.0763 12.524 44.2943 12.7908C44.5193 13.0576 44.7987 13.1911 45.1327 13.1911Z" fill="#3A3B7B"/>
<path d="M49.8533 8.04108C49.4882 8.04108 49.188 7.94547 48.9527 7.75425C48.7255 7.55568 48.6119 7.31299 48.6119 7.02616C48.6119 6.73198 48.7255 6.48928 48.9527 6.29807C49.188 6.0995 49.4882 6.00021 49.8533 6.00021C50.2103 6.00021 50.5024 6.0995 50.7296 6.29807C50.9649 6.48928 51.0826 6.73198 51.0826 7.02616C51.0826 7.31299 50.9649 7.55568 50.7296 7.75425C50.5024 7.94547 50.2103 8.04108 49.8533 8.04108ZM50.8878 8.68091V14.8366H48.8066V8.68091H50.8878Z" fill="#3A3B7B"/>
<path d="M53.7923 9.43006C53.9603 9.1386 54.1917 8.90317 54.4869 8.7238C54.7821 8.54443 55.1279 8.45474 55.524 8.45474C55.9872 8.45474 56.4066 8.58553 56.7822 8.84711C57.1582 9.10869 57.4534 9.48241 57.6682 9.96817C57.8899 10.454 58.0004 11.0183 58.0004 11.661C58.0004 12.3038 57.8899 12.8718 57.6682 13.365C57.4534 13.8508 57.1582 14.2282 56.7822 14.4973C56.4066 14.7589 55.9872 14.8897 55.524 14.8897C55.1348 14.8897 54.7889 14.7999 54.4869 14.6206C54.1917 14.4412 53.9603 14.2095 53.7923 13.9255V17.782H52.0709V8.54443H53.7923V9.43006ZM56.2488 11.661C56.2488 11.1827 56.128 10.809 55.8864 10.5399C55.6516 10.2634 55.3593 10.1251 55.0105 10.1251C54.6681 10.1251 54.3763 10.2634 54.1347 10.5399C53.8999 10.8165 53.7825 11.1939 53.7825 11.6722C53.7825 12.1505 53.8999 12.5279 54.1347 12.8045C54.3763 13.081 54.6681 13.2192 55.0105 13.2192C55.353 13.2192 55.6448 13.081 55.8864 12.8045C56.128 12.5205 56.2488 12.1393 56.2488 11.661Z" fill="#3A3B7B"/>
<path d="M61.3864 14.8366C60.8387 14.8366 60.3513 14.7439 59.9239 14.5586C59.4959 14.3733 59.1583 14.1213 58.9111 13.8026C58.6633 13.4765 58.5245 13.1132 58.4945 12.713H60.3965C60.4188 12.9279 60.5201 13.1021 60.7004 13.2356C60.88 13.369 61.1017 13.4357 61.3641 13.4357C61.6043 13.4357 61.7878 13.3912 61.9157 13.3023C62.0508 13.2059 62.1183 13.0836 62.1183 12.9354C62.1183 12.7575 62.0241 12.6277 61.8368 12.5462C61.6489 12.4573 61.3451 12.3609 60.9252 12.2571C60.4749 12.1534 60.0998 12.0459 59.7997 11.9347C59.4997 11.8161 59.241 11.6345 59.0232 11.3899C58.806 11.1379 58.6971 10.8007 58.6971 10.3782C58.6971 10.0224 58.7945 9.69999 58.9895 9.41088C59.192 9.11442 59.485 8.88094 59.8672 8.71046C60.2577 8.53998 60.7189 8.45474 61.2514 8.45474C62.0393 8.45474 62.6584 8.64746 63.1082 9.03289C63.5662 9.4183 63.8286 9.92975 63.8961 10.5672H62.1183C62.0878 10.3522 61.9903 10.1817 61.8253 10.0557C61.668 9.92975 61.4578 9.86676 61.1953 9.86676C60.9704 9.86676 60.7978 9.91119 60.6775 10.0002C60.5577 10.0817 60.4978 10.1966 60.4978 10.3448C60.4978 10.5227 60.5915 10.6561 60.7788 10.7451C60.9737 10.834 61.2743 10.923 61.6794 11.0119C62.1444 11.1305 62.5234 11.2491 62.8158 11.3677C63.1082 11.4788 63.3636 11.6642 63.5809 11.9236C63.8063 12.1756 63.9223 12.5165 63.9299 12.9464C63.9299 13.3097 63.8248 13.6358 63.6146 13.9249C63.4121 14.2065 63.1158 14.4289 62.726 14.5919C62.3432 14.755 61.8967 14.8366 61.3864 14.8366Z" fill="#3A3B7B"/>
<path d="M70.3535 8.94568V14.7739H68.5297V13.9801C68.345 14.2378 68.0926 14.4467 67.7727 14.6068C67.4599 14.76 67.1116 14.8366 66.7276 14.8366C66.2725 14.8366 65.8705 14.7391 65.5221 14.5442C65.1738 14.3422 64.9039 14.0532 64.7119 13.6772C64.5199 13.3012 64.424 12.8591 64.424 12.3507V8.94568H66.2369V12.1105C66.2369 12.5004 66.3401 12.8033 66.546 13.0192C66.7524 13.2351 67.0295 13.343 67.3779 13.343C67.7334 13.343 68.0142 13.2351 68.2206 13.0192C68.427 12.8033 68.5297 12.5004 68.5297 12.1105V8.94568H70.3535Z" fill="#3A3B7B"/>
<path d="M79.2096 8.94568C79.9758 8.94568 80.5838 9.16502 81.033 9.60369C81.4901 10.0424 81.7185 10.6517 81.7185 11.4316V14.8366H79.8395V11.6718C79.8395 11.2958 79.7331 11.0068 79.5192 10.8049C79.3128 10.596 79.0256 10.4915 78.6572 10.4915C78.2888 10.4915 77.9979 10.596 77.784 10.8049C77.5782 11.0068 77.475 11.2958 77.475 11.6718V14.8366H75.596V11.6718C75.596 11.2958 75.4896 11.0068 75.2757 10.8049C75.0693 10.596 74.7821 10.4915 74.4137 10.4915C74.0453 10.4915 73.7544 10.596 73.5405 10.8049C73.3347 11.0068 73.2315 11.2958 73.2315 11.6718V14.8366H71.3418V9.00835H73.2315V9.73949C73.4229 9.49578 73.6731 9.30429 73.9827 9.16502C74.2923 9.01879 74.642 8.94568 75.0324 8.94568C75.4965 8.94568 75.9093 9.03968 76.2703 9.22769C76.6387 9.4157 76.9258 9.68379 77.1322 10.032C77.3461 9.71164 77.637 9.45052 78.0054 9.24858C78.3738 9.04665 78.7754 8.94568 79.2096 8.94568Z" fill="#3A3B7B"/>
</g>
<defs>
<clipPath id="clip0_10_55343">
<rect width="81.0367" height="21.6" fill="white" transform="translate(0.681641 0.600189)"/>
</clipPath>
</defs>
</svg>
