<svg width="37" height="15" viewBox="0 0 37 15" fill="none" xmlns="http://www.w3.org/2000/svg">
<g clip-path="url(#clip0_10_25754)">
<path d="M11.2833 10.4291H13.8598V9.27204H12.1991V4.91394H11.2833V10.4291Z" fill="#2F234F"/>
<path d="M15.3864 9.65769C15.0191 9.65769 14.8277 9.17946 14.8277 8.46211C14.8277 7.74476 15.0191 7.25881 15.3864 7.25881C15.7537 7.25881 15.9503 7.74476 15.9503 8.46211C15.9503 9.17946 15.7537 9.65769 15.3864 9.65769ZM15.3916 10.5525C16.2452 10.5525 16.804 9.64998 16.804 8.46211C16.804 7.27424 16.2452 6.37177 15.3916 6.37177C14.5431 6.37177 13.974 7.27424 13.974 8.46211C13.974 9.64998 14.5431 10.5525 15.3916 10.5525Z" fill="#2F234F"/>
<path d="M18.2815 11.7944C18.6747 11.7944 19.0213 11.6633 19.2541 11.3547C19.4662 11.0693 19.6059 10.6374 19.6059 10.0434V6.47984H18.7988V6.90408H18.7885C18.6333 6.5724 18.3953 6.36414 18.0435 6.36414C17.3864 6.36414 16.9312 7.18176 16.9312 8.33878C16.9312 9.54979 17.4847 10.2131 18.0797 10.2131C18.4005 10.2131 18.6022 10.0203 18.7575 9.75805H18.7781V10.1514C18.7781 10.6297 18.6281 10.9074 18.2711 10.9074C17.9918 10.9074 17.8521 10.7299 17.8055 10.5217H16.9881C17.0708 11.347 17.552 11.7944 18.2815 11.7944ZM18.2763 9.27982C17.9607 9.27982 17.7538 8.89415 17.7538 8.30021C17.7538 7.69856 17.9607 7.31289 18.2763 7.31289C18.6281 7.31289 18.8144 7.76027 18.8144 8.2925C18.8144 8.84787 18.6436 9.27982 18.2763 9.27982Z" fill="#2F234F"/>
<path d="M21.2656 9.65769C20.8982 9.65769 20.7068 9.17946 20.7068 8.46211C20.7068 7.74476 20.8982 7.25881 21.2656 7.25881C21.6329 7.25881 21.8295 7.74476 21.8295 8.46211C21.8295 9.17946 21.6329 9.65769 21.2656 9.65769ZM21.2707 10.5525C22.1244 10.5525 22.6832 9.64998 22.6832 8.46211C22.6832 7.27424 22.1244 6.37177 21.2707 6.37177C20.4223 6.37177 19.8531 7.27424 19.8531 8.46211C19.8531 9.64998 20.4223 10.5525 21.2707 10.5525Z" fill="#2F234F"/>
<path d="M22.9293 10.4291H23.7726V6.47977H22.9293V10.4291ZM22.9293 5.93212H23.7726V4.91394H22.9293V5.93212Z" fill="#2F234F"/>
<path d="M24.1385 11.7327H24.9819V10.0203H24.9922C25.1578 10.352 25.4009 10.5525 25.7424 10.5525C26.4357 10.5525 26.8961 9.73491 26.8961 8.45448C26.8961 7.26661 26.4667 6.36414 25.7631 6.36414C25.4009 6.36414 25.1422 6.60325 24.9612 6.95807H24.9456V6.47984H24.1385V11.7327ZM25.5251 9.58064C25.1629 9.58064 24.956 9.14098 24.956 8.50076C24.956 7.86054 25.1422 7.3746 25.5096 7.3746C25.8717 7.3746 26.0425 7.82198 26.0425 8.50076C26.0425 9.17183 25.8459 9.58064 25.5251 9.58064Z" fill="#2F234F"/>
<path d="M28.2692 10.5525C28.9625 10.5525 29.4747 10.1052 29.4747 9.24125C29.4747 8.23079 28.9263 8.05338 28.4606 7.93768C28.1243 7.84512 27.8243 7.80655 27.8243 7.52887C27.8243 7.28204 27.9846 7.16633 28.1916 7.16633C28.4244 7.16633 28.5848 7.27432 28.6158 7.62914H29.3919C29.3505 6.85008 28.9469 6.36414 28.1968 6.36414C27.5708 6.36414 27.0534 6.79609 27.0534 7.62914C27.0534 8.55475 27.5449 8.73988 28.0053 8.85558C28.3572 8.94814 28.6779 8.98671 28.6779 9.34153C28.6779 9.59607 28.5175 9.73491 28.264 9.73491C27.9846 9.73491 27.8087 9.54208 27.7777 9.14869H26.981C27.0068 10.0203 27.4931 10.5525 28.2692 10.5525Z" fill="#2F234F"/>
<path d="M30.6201 10.5448C30.9874 10.5448 31.2202 10.3288 31.4117 9.94313H31.4272V10.4291H32.2343V6.4798H31.391V8.68584C31.391 9.15636 31.2151 9.48033 30.9253 9.48033C30.6563 9.48033 30.527 9.24121 30.527 8.80926V6.4798H29.6888V9.07151C29.6888 9.95085 30.0096 10.5448 30.6201 10.5448Z" fill="#2F234F"/>
<path d="M32.6011 10.4291H33.4444V8.21536C33.4444 7.74484 33.5996 7.41316 33.8634 7.41316C34.117 7.41316 34.2359 7.66 34.2359 8.08423V10.4291H35.0793V8.21536C35.0793 7.74484 35.2293 7.41316 35.4983 7.41316C35.7518 7.41316 35.8708 7.66 35.8708 8.08423V10.4291H36.7141V7.86054C36.7141 6.9735 36.4141 6.36414 35.8139 6.36414C35.4725 6.36414 35.1879 6.58011 34.981 7.05835H34.9706C34.8361 6.63411 34.5722 6.36414 34.2256 6.36414C33.8428 6.36414 33.5892 6.63411 33.4237 7.04292H33.4082V6.47984H32.6011V10.4291Z" fill="#2F234F"/>
<path fill-rule="evenodd" clip-rule="evenodd" d="M2.66572 2.42568C2.35732 2.74719 2.07844 3.12732 1.83634 3.55523C2.82565 3.41829 4.08254 3.64189 5.54176 4.72969C7.10002 5.89127 8.35481 5.93054 9.22808 5.67941C9.14883 5.32173 9.04907 4.97796 8.93092 4.65117C7.93126 4.80837 6.6497 4.6003 5.15615 3.48696C4.20774 2.77995 3.37172 2.48872 2.66572 2.42568ZM8.34696 3.41196C7.55753 2.09693 6.41029 1.26935 5.13339 1.26935C4.75841 1.26935 4.39457 1.34073 4.04772 1.47487C4.51749 1.66598 5.01653 1.94556 5.54176 2.3371C6.63526 3.15224 7.57932 3.4147 8.34696 3.41196ZM9.41478 6.9349C8.35979 7.24549 6.90295 7.1817 5.15615 5.87954C3.52309 4.66216 2.22331 4.67749 1.34669 4.96794C1.30145 4.98291 1.25726 4.99866 1.21415 5.01505C1.09938 5.3872 1.00776 5.77852 0.942029 6.18489C1.01224 6.15693 1.08478 6.13035 1.15964 6.10554C2.22313 5.7532 3.72575 5.7685 5.54176 7.12227C7.17485 8.33964 8.47462 8.32431 9.35125 8.03387C9.38128 8.02394 9.41088 8.01365 9.43998 8.00305C9.44317 7.90171 9.44477 7.79974 9.44477 7.69721C9.44477 7.43929 9.43459 7.18491 9.41478 6.9349ZM9.29922 9.35956C8.25446 9.63187 6.84005 9.52735 5.15615 8.27212C3.52309 7.05475 2.22331 7.07008 1.34669 7.36052C1.15211 7.42496 0.977067 7.50348 0.822653 7.58636C0.822232 7.62323 0.822021 7.66019 0.822021 7.69721C0.822021 11.2472 2.75229 14.1251 5.13339 14.1251C7.12893 14.1251 8.80783 12.1038 9.29922 9.35956Z" fill="#7F57F1"/>
</g>
<defs>
<clipPath id="clip0_10_25754">
<rect width="36" height="14.4" fill="white" transform="translate(0.800171 0.399963)"/>
</clipPath>
</defs>
</svg>
